<svg id="Слой_1" data-name="Слой 1" xmlns="http://www.w3.org/2000/svg" viewBox="0 0 100 100"><defs><style>.cls-1{fill:#fff;}</style></defs><title>accident</title><ellipse class="cls-1" cx="26.76" cy="43.38" rx="6.68" ry="5.22"/><path class="cls-1" d="M36.52,49.41c-2.23-.51-3.83-.62-5.13,0-3.55,1.68-3,7.94-1,12,3.85,8.22,16.44,14.64,22.59,12,3.49-1.48,5.13-4,3.07-6.4-5-5.81-9.83-13.63-16.18-16.58A15.78,15.78,0,0,0,36.52,49.41Z"/><path class="cls-1" d="M33.46,59c1.21-1.26-.93-5.23-4.1-5.62-2.58-.33-6.84,2.65-8.18,4a9.59,9.59,0,0,0-1.1,12.84c1.83,2.5,5.81,4.87,8.18,4,1.69-.58,1.57-1.91,1-3.21-1-2.4-3.23-3.2-4.1-5.62-.74-2,.83-4.65,3.08-5.62S32.58,59.93,33.46,59Z"/><path class="cls-1" d="M40.9,50.84c-2,.15-4.31,4.07-2.55,6.16,1.43,1.71,7.1,2.16,9.32,2,6-.41,11-3.58,12.85-8,1.13-2.73.69-6.64-1.74-7.45-1.7-.58-2.87.37-3.71,1.57-1.59,2.21-.85,4-2.56,6.15-1.42,1.77-4.93,2.63-7.39,2S42.33,50.74,40.9,50.84Z"/><path class="cls-1" d="M57.06,67.06a8.88,8.88,0,0,0-7.19,1.61,2.7,2.7,0,0,0-1,2.4c.28,2.16,3.8,3.13,4.11,3.21a11.11,11.11,0,0,0,5.13-.8C60.82,72.07,60.17,68,57.06,67.06Z"/><path class="cls-1" d="M38.57,88.35c-1.15.27-4,1-4.1,2.08C34.3,92,39.84,93,39.6,93.92c-.43,1.59-12.32,0-14.38,1.39-1.1.75-3.71,2.19,4.11,3.48,17.85,2.91,41.28-.1,41.08-2.08-.17-1.52-6.2-1.53-6.17-2.77,0-1,2.88-3.16,9.24-1.39,2.56.71,3.54.58,5.14,0a10.1,10.1,0,0,0,3.07-1.39c1.92-1.24.91-.82,7.2-.79.29,0,2.7-.29,2-.8-1-.8-9.6-1.37-22.59-2.56C68.35,87,57.26,84,38.57,88.35Z"/><path class="cls-1" d="M48.84,86.33c0,2.4-2,5.45-1,7.22A5.54,5.54,0,0,0,50.89,96c2.87,1.11,5-1.94,5.13-2.41,1-3.21,2.06-7.09,2.06-9.63S48.84,83.28,48.84,86.33Z"/><path class="cls-1" d="M43.87,74.5c3,3.36,4.53,5,5.21,6.82s.44,3.44.06,5.87c-.56,3.54-1.82,4.79-.75,6.39a4.89,4.89,0,0,0,4.26,2.06c3.28-.51,4.91-7,4.41-12-.55-5.47-4-12.79-9.67-13.59-2.07-.28-4.9.25-5.41,1.37C41.64,72.17,42.39,72.89,43.87,74.5Z"/><path class="cls-1" d="M52.68,74C58.11,73.93,61.6,72.5,64,73a18.2,18.2,0,0,1,6.81,2.28c3.78,2.21,5.2,5.36,7.55,5.44a3.8,3.8,0,0,0,3.67-2.17c1.1-2.57-5.85-8.29-11.9-10.52-6.57-2.42-17-2.28-20.78,1.3-1.39,1.31-1.08,2.42-.06,3.35A4.16,4.16,0,0,0,52.68,74Z"/><path class="cls-1" d="M95,83.26c-.05.39,3.8,1.5,4.76.82a.42.42,0,0,0,.17-.58C99.37,82.73,95.07,82.85,95,83.26Z"/><path class="cls-1" d="M84.65,74.21c.36.13,3.77-3.12,3.65-4.13,0-.2-.2-.37-.51-.27C86.68,70.17,84.27,74.08,84.65,74.21Z"/><path class="cls-1" d="M90.21,79.13c.26.28,6.3-1.45,7-2.48.14-.21.1-.45-.28-.48C95.53,76.06,90,78.85,90.21,79.13Z"/><polygon class="cls-1" points="11.45 40.49 9.57 42.39 0 37.64 3.22 33.86 11.45 40.49"/><ellipse class="cls-1" cx="13.5" cy="43.31" rx="1.54" ry="1.2"/><polygon class="cls-1" points="27.76 26.66 41.05 19.1 45.28 23.65 31.99 31.21 27.76 26.66"/><rect class="cls-1" x="29.33" y="4.83" width="2.05" height="16.38"/><rect class="cls-1" x="35.49" width="1.03" height="13.41"/></svg>