<?xml version="1.0" encoding="utf-8"?>
<!-- Generator: Adobe Illustrator 21.1.0, SVG Export Plug-In . SVG Version: 6.00 Build 0)  -->
<svg version="1.1" id="Слой_1" xmlns="http://www.w3.org/2000/svg" xmlns:xlink="http://www.w3.org/1999/xlink" x="0px" y="0px"
	 viewBox="0 0 100 100" style="enable-background:new 0 0 100 100;" xml:space="preserve">
<style type="text/css">
	.st0{fill:#FFFFFF;}
	.st1{fill:none;}
</style>
<title>car_theft</title>
<path class="st0" d="M17.7,80.5h1.5c3,0,5.5,2.4,5.5,5.5c0,0,0,0,0,0.1v8c0,3-2.5,5.5-5.5,5.5l0,0h-1.5c-3,0-5.5-2.4-5.5-5.5l0,0v-8
	C12.1,83,14.6,80.5,17.7,80.5C17.6,80.5,17.7,80.5,17.7,80.5z"/>
<path class="st0" d="M64.1,83.1L64.1,83.1c3,0,5.5,2.4,5.5,5.5v6c0,3-2.5,5.5-5.5,5.5l0,0l0,0c-3,0-5.5-2.4-5.5-5.5l0,0v-6
	C58.6,85.5,61,83.1,64.1,83.1L64.1,83.1z"/>
<path class="st1" d="M9.6,58.5h61.5c4.1,0,7.4,3.3,7.4,7.3l0,0v11c0,4.1-3.3,7.3-7.4,7.3l0,0H9.6c-4.1,0-7.4-3.3-7.4-7.3l0,0v-11
	C2.2,61.7,5.5,58.5,9.6,58.5z"/>
<path class="st0" d="M32.9,66.1h16c0.8,0,1.4,0.6,1.4,1.4l0,0l0,0c0,0.8-0.6,1.4-1.4,1.4l0,0h-16c-0.8,0-1.4-0.6-1.4-1.4l0,0l0,0
	C31.5,66.7,32.1,66.1,32.9,66.1L32.9,66.1z"/>
<path class="st0" d="M64.7,100h-1.5c-3,0-5.5-2.4-5.5-5.5l0,0v-6.1c0-1.4-0.1-3.3,0.8-4.3s3.2-1.2,4.7-1.2l1.4,1.2
	c1.5,0,3.9-1,4.9,0s0.6,2.7,0.6,4.3v6.1C70.2,97.5,67.8,100,64.7,100z"/>
<path class="st0" d="M81.5,61.2c-4.5,0.2-8.6,2.6-13.1,2.8c-4.3,0.2-8.9-1.9-13.1-1.7c-1.7-1.2-4.8-2.4-6.5-3.8
	c-2.3-1.8-3.5-3.8-4.3-4.7v-5.6c0-3.8,3.1-6.8,6.8-6.8h32.5c3.8,0,6.8,3,6.8,6.8v4.5C88.3,56.7,84.3,58.4,81.5,61.2z"/>
<path class="st1" d="M18.3,79.9L18.3,79.9c3,0,5.5,2.4,5.5,5.5l0,0v7.9c0,3-2.5,5.5-5.5,5.5l0,0l0,0c-3,0-5.5-2.4-5.5-5.5v-7.9
	C12.8,82.3,15.3,79.9,18.3,79.9z"/>
<path class="st0" d="M100,32.5C100,14.6,85.3,0,67.1,0C48.9,0,34.2,14.6,34.2,32.5c0,10,4.6,18.9,11.8,24.9H7.4
	c-4.1,0-7.4,3.2-7.4,7.3v13.5c0,4.1,3.3,7.3,7.4,7.3h65.9c4.1,0,7.4-3.2,7.4-7.3V64.7c0-0.9-0.2-1.7-0.4-2.4
	C91.9,57.3,100,45.8,100,32.5z M19.1,77c-3.8,0-6.9-3-6.9-6.8c0-3.8,3.1-6.8,6.9-6.8c3.8,0,6.9,3,6.9,6.8C26,74,22.9,77,19.1,77z
	 M48.9,74.9h-16c-0.8,0-1.4-0.6-1.4-1.4s0.6-1.4,1.4-1.4h16c0.8,0,1.4,0.6,1.4,1.4S49.7,74.9,48.9,74.9z M62.7,77
	c-3.8,0-6.9-3-6.9-6.8c0-3.8,3.1-6.8,6.9-6.8c3.8,0,6.9,3,6.9,6.8C69.6,74,66.5,77,62.7,77z M79.6,60.8c-1.3-2.1-3.6-3.4-6.3-3.4
	H48.6c-7.7-5.6-12.7-14.7-12.7-24.9c0-17.1,14-30.9,31.2-30.9c17.2,0,31.2,13.8,31.2,30.9C98.3,45.2,90.6,56.1,79.6,60.8z"/>
<ellipse class="st0" cx="61" cy="22.6" rx="3.1" ry="1.2"/>
<ellipse class="st0" cx="72.8" cy="22.6" rx="3.1" ry="1.2"/>
<g>
	<path class="st0" d="M78.3,19.5c-2-4.3-6.4-7.3-11.4-7.3c-5.1,0-9.5,3-11.4,7.3H78.3z"/>
	<path class="st0" d="M54.3,24.9c0.1,6.8,5.7,12.3,12.6,12.3c6.9,0,12.5-5.5,12.6-12.3H54.3z"/>
</g>
<g>
	<path class="st0" d="M34.4,36H18.6c-3.5,0-6.4,2.5-6.4,5.5l-1.1,15.6c0,1.7,1.2,2.7,2.9,3.4l0.9-18.4c0.1-1.6,1.5-2.9,3.1-2.8h16.9
		C34.7,38.2,34.5,37.1,34.4,36z"/>
</g>
</svg>
