<?xml version="1.0" encoding="utf-8"?>
<!-- Generator: Adobe Illustrator 21.1.0, SVG Export Plug-In . SVG Version: 6.00 Build 0)  -->
<svg version="1.1" id="Слой_1" xmlns="http://www.w3.org/2000/svg" xmlns:xlink="http://www.w3.org/1999/xlink" x="0px" y="0px"
	 viewBox="0 0 101 101" style="enable-background:new 0 0 101 101;" xml:space="preserve">
<style type="text/css">
	.st0{fill:none;stroke:#FFFFFF;stroke-width:3;stroke-miterlimit:10;}
	.st1{fill:none;}
	.st2{fill:none;stroke:#FFFFFF;stroke-miterlimit:10;}
	.st3{fill:#FFFFFF;}
</style>
<title>disaster</title>
<polygon class="st0" points="31.1,72.4 35.5,99.5 83.2,99.5 77.3,65.1 51.1,51.9 "/>
<rect x="34.1" y="89.9" class="st1" width="51.8" height="10.6"/>
<polygon class="st0" points="21.8,72.4 50.3,43.1 86.5,61.4 83.4,68 51.1,51.9 26.5,76.8 "/>
<polygon class="st2" points="65.3,48.6 64.6,45.7 71.5,44.9 73,52.3 "/>
<path class="st3" d="M41.1,9.3c0,0-7.7-3.3-12,0.7s-2.8,9.4,0.7,11.4s11.3,0,11.3,0s-0.7,3.3,1.4,4.7s7,0,7,0s0.7,4.7,7,5.3
	s12-5.3,12-5.3s4.2,2,12,0.7s7-8,3.5-10s-10.5-1.4-10.5-1.4s0.7-2.7-0.7-4c-1.6-1.3-3.5-2.1-5.6-2c-1.2,0-2.4,0.2-3.5,0.7
	c0,0,0.7-8.7-8.5-9.4s-12,2.7-13.4,4S41.1,9.3,41.1,9.3z"/>
<path class="st3" d="M34.4,22.5c0,0,4.5-2,7,0.4s1.6,5.5-0.4,6.6s-6.5,0-6.5,0s0.4,2-0.8,2.7s-4.1,0-4.1,0s-0.4,2.7-4.1,3.1
	s-7-3.1-7-3.1s-2.4,1.2-6.9,0.4s-4.1-4.7-2-5.8s6.1-0.8,6.1-0.8s-0.4-1.6,0.4-2.3c0.9-0.8,2-1.2,3.2-1.1c0.7,0,1.4,0.1,2,0.4
	c-0.2-2.8,1.8-5.2,4.6-5.4c0.1,0,0.2,0,0.3,0c5.3-0.4,7,1.6,7.8,2.4S34.4,22.5,34.4,22.5z"/>
<polygon class="st3" points="39.1,22.5 47.4,33.6 49.3,29 56.4,43.4 51.3,22 46.5,25.2 44.3,16.1 "/>
<path class="st1" d="M90.7,93.2v-3.7c-0.6,0-1.2,0-1.8,0c-3.7,0-7.3-3.5-8.8-5.6s-2.2-1.4-2.9-0.7S75,86,73.5,87.4
	s-6.6,2.8-10.2,2.1s-5.1-3.5-5.8-4.2s-1.5-2.8-3-2.8s-2.2,1.4-3.7,3.5s-5.1,3.5-9.5,3.5s-8-4.2-8.8-5.6c-0.6-1-1.8-1.5-2.9-1.4
	c-0.7,0-0.7,2.1-4.4,4.9s-5.8,2.8-9.5,2.1s-6.6-4.2-7.3-5.6c-0.3-0.9-1.2-1.5-2.2-1.4c-0.4,0-1.1,0.9-2,2.1V90
	c0.7-0.6,1.4-1.2,2-1.9c0.7-0.7,1.5,0.7,2.9,2.1C12.7,93,17.3,94,21.6,93c5.9-1.4,8-4.2,8.8-4.9s0.7,0.7,5.1,3.5s8,2.1,12.4,0.7
	c2.6-0.7,4.8-2.2,6.6-4.2c0.7,0,1.5,1.4,2.2,2.1c4.4,3.5,10.2,3.5,14.6,2.8s6.6-4.9,7.3-4.9s2.2,2.1,3.7,2.8
	C84.7,92.6,87.7,93.4,90.7,93.2z"/>
<path class="st3" d="M100.5,94.3c-2,0.7-4,1-6.1,1c-3.6,0-7.1-3.8-8.5-6s-2.1-1.5-2.8-0.8s-2.1,3-3.6,4.5s-6.4,3-10,2.3
	s-5-3.8-5.7-4.5s-1.4-3-2.8-3s-2.1,1.5-3.6,3.8s-5,3.8-9.3,3.8s-7.8-4.5-8.5-6c-0.5-1-1.7-1.6-2.8-1.5c-0.7,0-0.7,2.3-4.3,5.3
	s-5.7,3-9.3,2.3s-6.4-4.5-7.1-6c-0.7-1.5-1.4-1.5-2.1-1.5s-2.1,3-4.3,5.3s-7.8,2.3-7.8,2.3s-1.4,0.8-1.4,1.5s0,3,5,2.3
	s7.8-4.5,8.5-5.3s1.4,0.8,2.8,2.3c3.3,2.9,7.8,4,12.1,3c3.3-0.8,6.3-2.6,8.5-5.3c0.7-0.8,0.7,0.8,5,3.8s7.8,2.3,12.1,0.8
	c2.5-0.8,4.7-2.4,6.4-4.5c0.7,0,1.4,1.5,2.1,2.3c4.3,3.8,10,3.8,14.2,3s6.4-5.3,7.1-5.3s2.1,2.3,3.6,3c4.3,3,7.8,3,12.1,1.5l0.4-0.1
	L100.5,94.3z"/>
<path class="st3" d="M90.7,91.2h-1.2c-3.7,0-7.4-3.5-8.8-5.6s-2.2-1.4-2.9-0.7s-2.2,2.8-3.7,4.2s-6.6,2.8-10.3,2.1s-5.2-3.5-5.9-4.2
	s-1.5-2.8-3-2.8s-2.2,1.4-3.7,3.5s-5.2,3.5-9.6,3.5s-8.1-4.2-8.8-5.6c-0.6-1-1.8-1.6-2.9-1.4c-0.7,0-0.7,2.1-4.4,4.9
	s-5.9,2.8-9.6,2.1S9.3,87,8.6,85.6c-0.3-0.9-1.2-1.5-2.2-1.4c-0.4,0-0.9,0.7-1.7,1.7v5.5c0.8-0.7,1.4-1.3,1.7-1.6
	c0.8-0.7,1.4,0.7,2.9,2.1c3.5,2.8,8.1,3.8,12.5,2.8c5.9-1.4,8.1-4.2,8.8-4.9s0.7,0.7,5.2,3.5s8.1,2.1,12.5,0.7
	c2.6-0.7,4.9-2.2,6.6-4.2c0.7,0,1.5,1.4,2.2,2.1c4.4,3.5,10.3,3.5,14.7,2.8s6.6-4.9,7.4-4.9s2.2,2.1,3.7,2.8c2.3,1.6,5,2.4,7.8,2.3
	L90.7,91.2z"/>
</svg>
