<?xml version="1.0" encoding="utf-8"?>
<!-- Generator: Adobe Illustrator 21.1.0, SVG Export Plug-In . SVG Version: 6.00 Build 0)  -->
<svg version="1.1" id="Слой_1" xmlns="http://www.w3.org/2000/svg" xmlns:xlink="http://www.w3.org/1999/xlink" x="0px" y="0px"
	 viewBox="0 0 99.5 100" style="enable-background:new 0 0 99.5 100;" xml:space="preserve">
<style type="text/css">
	.st0{fill:#FFFFFF;}
	.st1{fill:none;}
</style>
<title>violence</title>
<path class="st0" d="M63.4,56.5v-2.8l-5.5-8.5h-2.8v-2.8l-5.5-2.9h-2.8v-2.8l-5.5-2.8h-5.6l-5.6,5.6L19,42.3l-8.3,14.1l2.7,11.3
	l-8.3,8.5L27.3,96l11.1-11.3h8.3l19.5-16.9v-8.5L63.4,56.5z M63.4,67.6L45.7,82.9h-7.6L28,93.2L7.9,75.1l7.6-7.7L13,57.2l7.5-12.8
	l10.1-2.6l5.1-5.1h5.1l5,2.6v2.5h2.5l5,2.6V47h2.6l5,7.7v2.6l2.5,2.5V67.6z"/>
<polygon class="st0" points="27.4,42.3 41.2,48 38.4,56.5 27.3,56.4 27.3,50.8 24.6,50.8 24.5,59.3 41.2,59.3 44,45.2 32,40.4 "/>
<path class="st0" d="M57.9,45.2h-2.8L52.3,48l-10.5,8.5l-5.5,2.8l2.1,5.6l8.3,2.9l16.7-11.3v-2.8L57.9,45.2z M60.6,56.5l-12.5,8.4
	l-6.2-2.1l-1.6-4.2l4.1-2.1l7.9-6.4l2.1-2.1h2.1l4.1,6.4V56.5z"/>
<polygon class="st0" points="46.4,39.4 48.4,41.4 43.4,46.8 41.4,44.9 "/>
<path class="st0" d="M63.4,56.5L46.7,67.8l2.8,5.6l7.4,2.5l9.3-8.1v-8.5L63.4,56.5z M63.4,67.3L56.8,73l-5.2-1.7l-2-4l11.8-8l2,2
	V67.3z"/>
<polyline class="st0" points="16.3,36.7 10.8,16.9 10.8,14 13.5,14.1 35.7,22.6 46.9,2.8 49.6,0 52.4,2.8 63.5,22.6 85.7,22.7 
	88.4,22.7 88.4,25.5 80.1,42.4 96.7,56.6 99.5,59.4 96.7,62.2 74.5,70.7 77.2,84.8 77.2,87.6 74.4,87.6 57.8,87.6 57.8,84.7 
	74.4,84.8 71.7,67.8 96.7,59.4 77.3,42.4 85.7,25.5 60.7,25.4 49.6,2.8 35.7,25.4 13.5,16.9 19,36.7 "/>
<polygon class="st1" points="5.8,71.3 30.6,93.3 24.8,100 0,78 "/>
</svg>
