<svg xmlns="http://www.w3.org/2000/svg" width="216" height="320" viewBox="0 0 216 320">
  <defs>
    <style>
      .a {
        fill: #fff;
      }
    </style>
  </defs>
  <title>случай</title>
  <g>
    <path d="M216,113c0,65-64,163-108,207C61.5,273.5,0,175.41,0,113S45.59,0,108,0,216,50.59,216,113Z"/>
    <path d="M101.53,100c-.35.36-2.62,2.89-2.33,5.82s1,3.83,2.33,4.66c2.72,1.71,9.31,2.33,10.47,1.16,2.12-2.12-5-8.37-8.15-11.64A1.5,1.5,0,0,0,101.53,100Z"/>
    <g>
      <circle class="a" cx="81.65" cy="97.64" r="8.98"/>
      <path class="a" d="M94.77,108c-3-.87-5.15-1.06-6.9,0-4.77,2.9-4,13.67-1.38,20.71,5.22,14.13,22.12,25.18,30.38,20.71,4.7-2.54,6.9-6.9,4.14-11-6.68-10-13.22-23.46-21.76-28.53A18.17,18.17,0,0,0,94.77,108Z"/>
      <path class="a" d="M90.62,124.57c1.62-2.16-1.26-9-5.52-9.67-3.47-.56-9.19,4.56-11,6.9a20,20,0,0,0-1.38,22.1c2.46,4.29,7.81,8.38,11,6.9,2.27-1,2.12-3.3,1.38-5.52-1.38-4.14-4.35-5.51-5.52-9.67-1-3.47,1.12-8,4.14-9.67S89.46,126.11,90.62,124.57Z"/>
      <path class="a" d="M100.66,110.47c-2.68.26-5.79,7-3.43,10.59,1.92,2.94,9.55,3.73,12.54,3.52A20,20,0,0,0,127,110.74c1.52-4.7.94-11.42-2.33-12.82-2.29-1-3.87.65-5,2.7-2.13,3.81-1.14,6.92-3.43,10.59-1.91,3.05-6.64,4.53-9.94,3.44S102.58,110.29,100.66,110.47Z"/>
      <path d="M122.39,138.38c-2.72-1-6.9,0-9.67,2.76a5.36,5.36,0,0,0-1.38,4.14c.37,3.71,5.11,5.38,5.52,5.52a12.19,12.19,0,0,0,6.9-1.38C127.45,147,126.58,140,122.39,138.38Z"/>
      <path class="a" d="M97.53,175c-1.55.46-5.37,1.68-5.52,3.58-.22,2.71,7.23,4.45,6.9,6-.58,2.74-16.57,0-19.33,2.39-1.49,1.29-5,3.77,5.52,6,24,5,55.52-.18,55.24-3.58-.22-2.62-8.33-2.64-8.29-4.77,0-1.8,3.87-5.43,12.43-2.39,3.44,1.22,4.76,1,6.9,0a12.62,12.62,0,0,0,4.14-2.39c2.57-2.13,1.22-1.41,9.67-1.36.39,0,3.64-.51,2.76-1.38-1.38-1.38-12.91-2.36-30.38-4.41C137.58,172.64,122.62,167.52,97.53,175Z"/>
      <path d="M111.34,171.52c0,4.14-2.66,9.39-1.38,12.43a8.07,8.07,0,0,0,4.14,4.14c3.85,1.92,6.7-3.34,6.9-4.14,1.38-5.52,2.76-12.2,2.76-16.57C123.77,163.24,111.34,166.28,111.34,171.52Z"/>
      <path class="a" d="M104.64,151.18c4.06,5.77,6.09,8.65,7,11.73s.59,5.91.08,10.09c-.75,6.09-2.44,8.25-1,11,1.06,2,3.61,4,5.72,3.55,4.41-.88,6.61-12,5.93-20.62-.74-9.4-5.36-22-13-23.37-2.79-.49-6.59.42-7.28,2.35C101.65,147.17,102.68,148.41,104.64,151.18Z"/>
      <path class="a" d="M116.5,150.36c7.3-.17,12-2.63,15.27-1.85s5.66,1.31,9.15,3.92c5.09,3.8,7,9.22,10.16,9.35a5.11,5.11,0,0,0,4.93-3.72c1.48-4.42-7.86-14.27-16-18.1-8.83-4.16-22.82-3.93-27.95,2.23-1.87,2.25-1.45,4.16-.07,5.77C112.91,149,113.87,150.42,116.5,150.36Z"/>
      <path class="a" d="M173.43,166.24c-.07.67,5.11,2.59,6.4,1.42a.84.84,0,0,0,.23-1C179.28,165.33,173.5,165.54,173.43,166.24Z"/>
      <path class="a" d="M159.48,150.68c.49.22,5.08-5.38,4.91-7.11,0-.35-.27-.64-.68-.47C162.22,143.73,159,150.45,159.48,150.68Z"/>
      <path class="a" d="M167,159.14c.35.48,8.47-2.5,9.41-4.27.19-.36.14-.77-.37-.82C174.13,153.86,166.61,158.65,167,159.14Z"/>
      <polygon class="a" points="61.06 92.66 58.53 95.93 45.66 87.76 49.99 81.26 61.06 92.66"/>
      <circle class="a" cx="63.8" cy="97.51" r="2.07" transform="translate(-17.88 14.41) rotate(-11.31)"/>
      <rect class="a" x="83.72" y="61.45" width="22.1" height="9.67" transform="translate(-20.86 68.42) rotate(-36.03)"/>
      <rect class="a" x="85.1" y="31.31" width="2.76" height="28.18"/>
      <rect class="a" x="93.38" y="23" width="1.38" height="23.07"/>
    </g>
  </g>
</svg>
