<svg xmlns="http://www.w3.org/2000/svg" width="216" height="320" viewBox="0 0 216 320">
  <defs>
    <style>
      .a {
        fill: #fff;
      }
    </style>
  </defs>
  <title>некач. услуги</title>
  <g>
    <path d="M216,113c0,65-64,163-108,207C61.5,273.5,0,175.41,0,113S45.59,0,108,0,216,50.59,216,113Z"/>
    <g>
      <g>
        <polygon points="157.38 166.94 108.69 166.94 60 166.94 60 87.5 157.38 87.5 157.38 166.94"/>
        <ellipse cx="108.69" cy="165.66" rx="48.69" ry="24.34"/>
        <polygon points="60 87.5 79.22 67 79.22 40.09 138.16 40.09 138.16 68.28 157.38 87.5 157.38 95.67 60 95.67 60 87.5"/>
        <ellipse cx="108.69" cy="40.09" rx="29.47" ry="14.09"/>
      </g>
      <polygon class="a" points="153.53 164.18 108.69 164.18 63.84 164.18 63.84 88.46 153.53 88.46 153.53 164.18"/>
      <ellipse class="a" cx="108.69" cy="162.95" rx="44.84" ry="23.2"/>
      <polygon class="a" points="63.84 88.46 81.55 68.92 81.55 43.28 135.83 43.28 135.83 70.14 153.53 88.46 153.53 96.25 63.84 96.25 63.84 88.46"/>
      <ellipse class="a" cx="108.69" cy="43.28" rx="27.14" ry="13.43"/>
      <g>
        <path d="M84.34,49.06V67s1.28,7.69,14.09,10.25,15.38,0,15.38,0l-1.28-20.5s-10.25,0-17.94-2.56S84.34,49.06,84.34,49.06Z"/>
        <path d="M133,49.06V67s-1.28,7.69-14.09,10.25-14.09,0-14.09,0L99.72,55.47s15.38,1.28,23.06-1.28S133,49.06,133,49.06Z"/>
      </g>
      <ellipse cx="108.69" cy="42.66" rx="24.34" ry="10.25"/>
      <path d="M134.38,70.84l14,15.19s-1.17,10.52-14,15.19-22.2,4.67-37.4,3.51-24.54-10.52-26.88-14S68.94,86,68.94,86L83,70.84S87.64,79,99.32,81.36s16.36,0,22.2-1.17c4.67-1.17,11.69-7,11.69-7Z"/>
      <polygon points="134.33 75.6 132.24 74.12 134.3 71.21 136.88 74.69 134.33 75.6"/>
      <g>
        <path d="M67.69,96.47V165s2.16,10.83,23.74,14.44,25.89,0,25.89,0l-2.16-69.57s-17.26,0-30.21-3.61S67.69,96.47,67.69,96.47Z"/>
        <path d="M149.69,96.47V165s-2.16,10.83-23.74,14.44-23.74,0-23.74,0l-8.63-71.37s25.89,1.8,38.84-1.8S149.69,96.47,149.69,96.47Z"/>
      </g>
      <path class="a" d="M96.35,136.48l-8.09-4.62s-4.62,3.47-9.24-1.16,1.16-10.4,1.16-10.4,1.16,0,2.31-2.31,3.47-2.31,5.78-2.31,3.47,5.78,3.47,5.78l18.48,9.24,22,10.4s4.62,0,6.93,1.16,0,6.93,1.16,8.09,0,5.78-3.47,6.93-6.93,1.16-9.24-2.31c-1.16-1.16-1.16-4.62-1.16-4.62Z"/>
      <path class="a" d="M121.57,136.48l8.09-4.62s4.62,3.47,9.24-1.16-1.16-10.4-1.16-10.4-1.16,0-2.31-2.31-3.47-2.31-5.78-2.31-3.47,5.78-3.47,5.78l-18.48,9.24-22,10.4s-4.62,0-6.93,1.16,0,6.93-1.16,8.09,0,5.78,3.47,6.93,6.93,1.16,9.24-2.31c1.16-1.16,1.16-4.62,1.16-4.62Z"/>
    </g>
  </g>
</svg>
