<svg xmlns="http://www.w3.org/2000/svg" width="216" height="320" viewBox="0 0 216 320">
  <defs>
    <style>
      .a {
        fill: #fff;
      }
    </style>
  </defs>
  <title>смэрть</title>
  <g>
    <path d="M216,113c0,65-64,163-108,207C61.5,273.5,0,175.41,0,113S45.59,0,108,0,216,50.59,216,113Z"/>
    <g>
      <rect class="a" x="76.43" y="111.67" width="64.38" height="69.33"/>
      <path class="a" d="M173,90.62c0,19.83-29.1,35.9-65,35.9s-65-16.08-65-35.9S72.1,51,108,51,173,70.79,173,90.62Z"/>
      <path class="a" d="M46.71,99.29l7.43,16.1s3.71,7.43,3.71,14.86-3.71,14.86-3.71,14.86-2.48,6.19,2.48,8.67,8.67,5,13.62,6.19a39.92,39.92,0,0,1,7.43,2.48V99.29Z"/>
      <path class="a" d="M169.29,98l-6.19,16.1s-3.71,7.43-3.71,14.86,3.71,14.86,3.71,14.86,2.48,6.19-2.48,8.67-8.67,5-13.62,6.19a39.92,39.92,0,0,0-7.43,2.48V98Z"/>
      <circle cx="134" cy="116" r="16.71"/>
      <circle cx="82" cy="116" r="16.71"/>
      <path d="M108.62,126.52c.81,0,11.14,20.47,11.14,21.28v7a1.47,1.47,0,0,1-1.47,1.47H97.71a1.47,1.47,0,0,1-1.47-1.47v-7c0-.81,10.33-21.28,11.14-21.28"/>
    </g>
    <path class="a" d="M108,98"/>
  </g>
</svg>
