<svg xmlns="http://www.w3.org/2000/svg" width="117.38" height="175.19" viewBox="0 0 117.38 175.19">
  <defs>
    <style>
      .a {
        fill: #fff;
      }
    </style>
  </defs>
  <title>Ресурс 10</title>
  <g>
    <g>
      <polygon points="0.61 58.79 58.69 0.71 116.77 58.79 58.69 174.08 0.61 58.79"/>
      <path d="M58.69,1.41l57.47,57.47L58.69,173,1.22,58.89,58.69,1.41m0-1.41L0,58.69l58.69,116.5,58.69-116.5L58.69,0Z"/>
    </g>
    <g>
      <polygon class="a" points="1.9 59.17 58.69 0.71 116.47 59.18 59.19 113.5 1.9 59.17"/>
      <path d="M58.7,1.43l57.06,57.74L59.19,112.81,2.61,59.16,58.7,1.43m0-1.43L1.19,59.19l58,55,58-55L58.69,0Z"/>
    </g>
  </g>
</svg>
