<svg xmlns="http://www.w3.org/2000/svg" width="117.38" height="146.5" viewBox="0 0 117.38 146.5">
  <defs>
    <style>
      .a {
        fill: #fff;
      }

      .b {
        fill: none;
        stroke: #fff;
        stroke-miterlimit: 10;
      }
    </style>
  </defs>
  <title>Ресурс 7</title>
  <g>
    <g>
      <polygon points="51.67 80.77 1.21 30.5 116.17 30.5 65.71 80.77 58.69 142.1 51.67 80.77"/>
      <path d="M115,31,65.48,80.29l-.25.25,0,.35-6.51,56.82L52.18,80.89l0-.35-.25-.25L2.42,31H115m2.42-1H0L51.19,81l7.5,65.5L66.19,81l51.19-51Z"/>
    </g>
    <g>
      <polygon class="a" points="1.06 29.62 58.19 0.56 116.32 29.62 58.69 82.32 1.06 29.62"/>
      <path d="M58.19,1.12l57.25,28.62L58.69,81.64,1.93,29.74,58.19,1.12m0-1.12L.19,29.5,58.69,83l58.5-53.5L58.19,0Z"/>
    </g>
    <polyline class="b" points="67.69 80.5 58.69 88.5 49.69 80.5"/>
  </g>
</svg>
