<svg xmlns="http://www.w3.org/2000/svg" width="117.38" height="175.19" viewBox="0 0 117.38 175.19">
  <defs>
    <style>
      .a {
        fill: #fff;
      }
    </style>
  </defs>
  <title>Ресурс 9</title>
  <g>
    <g>
      <polygon points="0.61 58.79 58.69 0.71 116.77 58.79 58.69 174.08 0.61 58.79"/>
      <path d="M58.69,1.41l57.47,57.47L58.69,173,1.22,58.89,58.69,1.41m0-1.41L0,58.69l58.69,116.5,58.69-116.5L58.69,0Z"/>
    </g>
    <g>
      <polygon class="a" points="2.82 59.26 59.19 0.91 114.57 59.26 59.19 152.22 2.82 59.26"/>
      <path d="M59.18,1.64l54.76,57.69L59.18,151.25,3.44,59.33,59.18,1.64m0-1.45-57,59,57,94,56-94-56-59Z"/>
    </g>
  </g>
</svg>
