<svg xmlns="http://www.w3.org/2000/svg" width="117.38" height="154.5" viewBox="0 0 117.38 154.5">
  <defs>
    <style>
      .a {
        fill: #fff;
      }
    </style>
  </defs>
  <title>Ресурс 6</title>
  <g>
    <g>
      <polygon points="53.67 95.79 1.14 38.5 116.26 38.5 64.71 95.78 58.73 149.6 53.67 95.79"/>
      <path d="M115.13,39,64.45,95.33l-.22.24,0,.32L58.77,144.7,54.19,95.91l0-.33-.23-.25L2.27,39H115.13m2.25-1H0L53.19,96l5.5,58.5L65.19,96l52.19-58Z"/>
    </g>
    <g>
      <polygon class="a" points="0.88 37.45 31.43 0.5 85.95 0.5 116.5 37.45 58.69 90.32 0.88 37.45"/>
      <path d="M85.72,1l30.09,36.4L58.69,89.64,1.57,37.4,31.66,1H85.72m.47-1h-55L.19,37.5,58.69,91l58.5-53.5L86.19,0Z"/>
    </g>
  </g>
</svg>
