<svg xmlns="http://www.w3.org/2000/svg" width="122.97" height="199.97" viewBox="0 0 122.97 199.97">
  <defs>
    <style>
      .a {
        fill: #fff;
      }
    </style>
  </defs>
  <title>Ресурс 5</title>
  <g>
    <g>
      <path d="M61.48,199.47a11.42,11.42,0,0,1-8.06-3.28L3.93,69.69l-.07-.07a11.54,11.54,0,0,1,0-16.26l49.5-49.5a11.54,11.54,0,0,1,16.26,0l49.5,49.5a11.54,11.54,0,0,1,0,16.26l-.07.07-49.5,126.5a11.42,11.42,0,0,1-8.06,3.28Z"/>
      <path d="M61.48,1a10.92,10.92,0,0,1,7.78,3.21l49.5,49.5a11,11,0,0,1,0,15.56l-.15.15-.08.19L69.11,195.9a11,11,0,0,1-15.26,0L4.43,69.6l-.08-.19-.15-.15a11,11,0,0,1,0-15.56L53.7,4.21A10.92,10.92,0,0,1,61.48,1m0-1A12,12,0,0,0,53,3.5L3.5,53a12,12,0,0,0,0,17L53,196.47a12,12,0,0,0,8.49,3.5h0a12,12,0,0,0,8.48-3.5L119.47,70a12,12,0,0,0,0-17L70,3.5A12,12,0,0,0,61.48,0Z"/>
    </g>
    <g>
      <path class="a" d="M61.48,103.08a11.42,11.42,0,0,1-8.13-3.35L22.24,68.61a11.54,11.54,0,0,1,0-16.26L53.35,21.24a11.54,11.54,0,0,1,16.26,0l31.11,31.11a11.54,11.54,0,0,1,0,16.26L69.61,99.73A11.42,11.42,0,0,1,61.48,103.08Z"/>
      <path d="M61.48,18.38a10.92,10.92,0,0,1,7.78,3.21L100.37,52.7a11,11,0,0,1,0,15.56L69.26,99.37a11,11,0,0,1-15.56,0L22.59,68.26a11,11,0,0,1,0-15.56L53.7,21.59a10.92,10.92,0,0,1,7.78-3.21m0-1A12,12,0,0,0,53,20.88L21.88,52a12,12,0,0,0,0,17L53,100.08a12,12,0,0,0,17,0L101.08,69a12,12,0,0,0,0-17L70,20.88a12,12,0,0,0-8.49-3.5Z"/>
    </g>
  </g>
</svg>
