<svg xmlns="http://www.w3.org/2000/svg" width="216" height="320" viewBox="0 0 216 320">
  <defs>
    <style>
      .a {
        fill: #fff;
      }
    </style>
  </defs>
  <title>животное</title>
  <g>
    <path d="M216,113c0,65-64,163-108,207C61.5,273.5,0,175.41,0,113S45.59,0,108,0,216,50.59,216,113Z"/>
    <g>
      <polygon class="a" points="79.25 130.1 84.66 124.69 90.08 108.45 98.2 97.62 111.73 94.91 122.56 100.33 127.97 111.15 133.39 124.69 138.8 130.1 149.63 132.81 157.75 135.52 160.46 143.64 157.75 159.88 152.34 168 141.51 168 117.15 159.88 100.9 159.88 76.54 168 65.71 168 60.3 159.88 57.59 143.64 60.3 135.52 65.71 132.81 79.25 130.1"/>
      <path class="a" d="M100.94,54.27c2.31,12.62-2.8,22.92-11.76,24.57S71.09,71.58,68.78,59s3.07-24.18,12-25.82S98.63,41.65,100.94,54.27Z"/>
      <path class="a" d="M114.49,53.21c-2.34,12.79,2.84,23.23,11.92,24.9S144.74,70.76,147.09,58,144,33.46,134.9,31.8,116.83,40.42,114.49,53.21Z"/>
      <path class="a" d="M146.05,90c-4.18,10-1.35,19.57,6.34,22.79s17.32-2.24,21.5-12.21,1.33-20.66-6.37-23.89S150.23,80,146.05,90Z"/>
      <path class="a" d="M73.74,90c4.18,10,1.35,19.57-6.34,22.79s-17.32-2.24-21.5-12.21-1.33-20.66,6.37-23.89S69.56,80,73.74,90Z"/>
    </g>
  </g>
</svg>
