<svg xmlns="http://www.w3.org/2000/svg" width="216" height="320" viewBox="0 0 216 320">
  <defs>
    <style>
      .a, .c {
        fill: #fff;
      }

      .b, .d {
        stroke: #fff;
      }

      .b, .c, .d {
        stroke-miterlimit: 10;
      }

      .b {
        stroke-width: 3px;
      }

      .c {
        stroke: #000;
      }
    </style>
  </defs>
  <title>стихии</title>
  <g>
    <path d="M216,113c0,65-64,163-108,207C61.5,273.5,0,175.41,0,113S45.59,0,108,0,216,50.59,216,113Z"/>
    <path d="M13.48,162.49s8.42,0,11.58-3.16S30.32,152,31.38,152s2.11,0,3.16,2.11,5.26,7.37,10.53,8.42,8.42,1.05,13.69-3.16S64,152,65.07,152a4.2,4.2,0,0,1,4.21,2.11c1.05,2.11,6.32,8.42,12.64,8.42s11.58-2.11,13.69-5.26,3.16-5.26,5.26-5.26,3.16,3.16,4.21,4.21,3.16,5.26,8.42,6.32,12.64-1.05,14.74-3.16,4.21-5.26,5.26-6.32,2.11-2.11,4.21,1.05,7.37,8.42,12.64,8.42c41,0-25.19,34.67,13.69-4.21,3.16-3.16,4.21-6.32,5.26-6.32s3.16,0,4.21,3.16,4.21,5.26,7.37,6.32,7.37,1.05,8.42,2.11,1.05,3.16-1.05,4.21-9.48,0-13.69-3.16-4.21-5.26-5.26-4.21c0,1.05-4.21,4.21-10.53,6.32s-11.58,2.11-17.9-2.11c-2.11-1.05-4.21-4.21-5.26-4.21s-4.21,6.32-10.53,7.37-14.74,1.05-21.06-4.21c-1.05-1.05-2.11-3.16-3.16-3.16a19.36,19.36,0,0,1-9.48,6.32c-6.32,2.11-11.58,3.16-17.9-1.05s-6.32-6.32-7.37-5.26-4.21,5.26-12.64,7.37-15.79-2.11-17.9-4.21-3.16-4.21-4.21-3.16-5.26,6.32-12.64,7.37-7.37-2.11-7.37-3.16S13.48,162.49,13.48,162.49Z"/>
    <path class="a" d="M13.48,165s8.42,0,11.58-3.16,5.26-7.37,6.32-7.37,2.11,0,3.16,2.11S39.8,164,45.07,165s8.42,1.05,13.69-3.16,5.26-7.37,6.32-7.37a4.2,4.2,0,0,1,4.21,2.11c1.05,2.11,6.32,8.42,12.64,8.42s11.58-2.11,13.69-5.26,3.16-5.26,5.26-5.26,3.16,3.16,4.21,4.21,3.16,5.26,8.42,6.32,12.64-1.05,14.74-3.16,4.21-5.26,5.26-6.32,2.11-2.11,4.21,1.05S145.1,165,150.36,165s10.53-1.05,13.69-4.21,4.21-6.32,5.26-6.32,3.16,0,4.21,3.16,4.21,5.26,7.37,6.32,7.37,1.05,8.42,2.11,1.05,3.16-1.05,4.21-9.48,0-13.69-3.16-4.21-5.26-5.26-4.21c0,1.05-4.21,4.21-10.53,6.32s-11.58,2.11-17.9-2.11c-2.11-1.05-4.21-4.21-5.26-4.21s-4.21,6.32-10.53,7.37-14.74,1.05-21.06-4.21c-1.05-1.05-2.11-3.16-3.16-3.16a19.36,19.36,0,0,1-9.48,6.32c-6.32,2.11-11.58,3.16-17.9-1.05s-6.32-6.32-7.37-5.26-4.21,5.26-12.64,7.37-15.79-2.11-17.9-4.21-3.16-4.21-4.21-3.16-5.26,6.32-12.64,7.37-7.37-2.11-7.37-3.16S13.48,165,13.48,165Z"/>
    <polygon class="b" points="66.73 136.86 73.03 177.5 141.26 177.5 132.76 125.86 95.34 106.05 66.73 136.86"/>
    <rect x="67" y="167.15" width="76.57" height="16.85"/>
    <path class="c" d="M25,171.21s8.14,0,11.2-3.38S41.27,160,42.29,160s2,0,3.05,2.25,5.09,7.88,10.18,9,8.14,1.13,13.23-3.38S73.85,160,74.86,160a3.94,3.94,0,0,1,4.07,2.25c1,2.25,6.11,9,12.21,9s11.2-2.25,13.23-5.63,3.05-5.63,5.09-5.63,3.05,3.38,4.07,4.5,3.05,5.63,8.14,6.75,12.21-1.13,14.25-3.38,4.07-5.63,5.09-6.75,2-2.25,4.07,1.13,7.13,9,12.21,9,10.18-1.13,13.23-4.5,4.07-6.75,5.09-6.75,3.05,0,4.07,3.38,4.07,5.63,7.13,6.75,7.13,1.13,8.14,2.25a2.92,2.92,0,0,1-1,4.5c-2,1.13-9.16,0-13.23-3.38s-4.07-5.63-5.09-4.5c0,1.13-4.07,4.5-10.18,6.75s-11.2,2.25-17.3-2.25c-2-1.13-4.07-4.5-5.09-4.5s-4.07,6.75-10.18,7.88-14.25,1.13-20.36-4.5c-1-1.13-2-3.38-3.05-3.38a18.89,18.89,0,0,1-9.16,6.75c-6.11,2.25-11.2,3.38-17.3-1.13s-6.11-6.75-7.13-5.63a22,22,0,0,1-12.21,7.88,18.55,18.55,0,0,1-17.3-4.5c-2-2.25-3.05-4.5-4.07-3.38s-5.09,6.75-12.21,7.88S23,174.59,23,173.46,25,171.21,25,171.21Z"/>
    <polygon class="b" points="53.52 136.86 94.24 92.84 145.97 120.36 141.57 130.26 95.34 106.05 60.13 143.47 53.52 136.86"/>
    <polygon class="d" points="115.7 101.09 114.6 96.69 124.51 95.59 126.71 106.6 115.7 101.09"/>
    <path class="a" d="M81,42.1s-11.06-5-17.1,1-4,14.08,1,17.1S81,60.2,81,60.2s-1,5,2,7,10.06,0,10.06,0,1,7,10.06,8,17.1-8,17.1-8,6,3,17.1,1,10.06-12.07,5-15.08-15.08-2-15.08-2,1-4-1-6a11.42,11.42,0,0,0-8-3,12.2,12.2,0,0,0-5,1S114.2,30,101.12,29,84,33,82,35.06,81,42.1,81,42.1Z"/>
    <path class="c" d="M71.48,62s6.43-2.92,9.94.58,2.34,8.19-.58,9.94-9.36,0-9.36,0,.58,2.92-1.17,4.09-5.85,0-5.85,0-.58,4.09-5.85,4.68-9.94-4.68-9.94-4.68-3.51,1.75-9.94.58-5.85-7-2.92-8.77,8.77-1.17,8.77-1.17-.58-2.34.58-3.51A6.64,6.64,0,0,1,49.85,62a7.09,7.09,0,0,1,2.92.58s-.58-7.6,7-8.19,9.94,2.34,11.11,3.51S71.48,62,71.48,62Z"/>
    <polygon class="c" points="78.27 61.98 90.04 78.54 92.76 71.71 102.99 93.23 95.72 61.23 88.79 66 85.68 52.29 78.27 61.98"/>
    <polygon points="195.36 179.14 187.22 179.79 180.9 148.2 203.01 142.93 195.36 179.14"/>
    <polygon points="32.43 181.89 17 182 11 167 6 150 21.9 151.36 32.43 181.89"/>
  </g>
</svg>
