<svg xmlns="http://www.w3.org/2000/svg" width="216" height="320" viewBox="0 0 216 320">
  <defs>
    <style>
      .a {
        fill: #fff;
      }
    </style>
  </defs>
  <title>кража</title>
  <g>
    <path d="M216,113c0,65-64,163-108,207C61.5,273.5,0,175.41,0,113S45.59,0,108,0,216,50.59,216,113Z"/>
    <path d="M85,113"/>
    <line class="a" x1="116.91" y1="121" x2="117.54" y2="121"/>
    <line x1="116.91" y1="123" x2="117.39" y2="123"/>
    <path d="M122,117"/>
    <path d="M124,117"/>
    <path d="M111,155.5a9,9,0,1,1,18,0"/>
    <g>
      <rect class="a" x="71.66" y="62.27" width="32.46" height="22.07"/>
      <rect x="63.87" y="35" width="49.34" height="28.56"/>
      <rect class="a" x="65.17" y="36.3" width="46.74" height="25.97"/>
      <path class="a" d="M102.82,111.6c-1.47.32-4.82-34.3-19.48-37.65-9.52-2.18-24,8.76-28.56,13-1.14,1.05-2,2-2.6,2.6-2.6,2.6-7.79,10.39-9.09,14.28a8.48,8.48,0,0,0,0,5.19c1.16,1.06,3,.55,3.9-1.3a22.45,22.45,0,0,1,3.9-5.19L57.38,96c3.63-3.63,10.39-5.19,10.39-2.6,0,1.15,0,1.3-1.3,2.6,0,0-5.4,4-13,19.48,0,0-2.6,10.39-2.6,13,0,1.09-1.3,6.49,0,9.09a2.62,2.62,0,0,0,3.9,1.3c2.6-1.3,3-10.55,3.9-13,3.9-10.39,6.18-11.53,11.69-16.88,2.86-2.78,3.9,1,3.9,1.3,0,2.6-3,6.24-5.19,11.69-2.42,6.13-2.6,5.19-3.9,14.28s-1.3,10.39-1.3,13c0,1.3.12,3.9,2.6,3.9s4.09-10.14,7.79-20.77a79,79,0,0,1,5.56-11.54c1.63-3,3.45-4.44,5.33-5,.67-.21,1.67-.71,2.09-.31.78.76-1.42,3.71-2.6,6.49a19.64,19.64,0,0,0,0,14.28c3.17,7.47,13.47,10.61,20.77,10.39,12.72-.39,23.78-11.23,27.27-22.07C141,98.67,107.2,69.18,100.22,72.65,93.68,75.91,104.34,111.28,102.82,111.6Z"/>
      <path d="M124.89,129.78a16.46,16.46,0,0,1-3.9,10.39c-.56.69-5.49,6.56-13,6.49-8-.07-16.88-6.94-16.88-16.88A16.88,16.88,0,0,1,108,112.9C118.14,112.9,124.77,122.09,124.89,129.78Z"/>
      <rect class="a" x="89.84" y="80.44" width="14.28" height="32.46"/>
      <rect class="a" x="75.55" y="170.03" width="103.87" height="25.97" rx="3.75" ry="3.75"/>
      <polyline points="122.99 137.57 150.86 137.57 150.86 183.02 101.52 183.02 101.52 137.57 122.17 137.57"/>
      <polyline class="a" points="122.8 140.17 148.26 140.17 148.26 183.02 104.12 183.02 104.12 140.17 122.17 140.17"/>
      <rect x="110.61" y="151.85" width="1.3" height="31.16" rx="0.5" ry="0.5"/>
      <rect x="140.47" y="151.85" width="1.3" height="31.16" rx="0.5" ry="0.5"/>
      <rect x="97.63" y="188.21" width="57.13" height="1.3" rx="0.5" ry="0.5"/>
      <rect x="114.51" y="146.66" width="23.37" height="1.3" rx="0.5" ry="0.5"/>
      <rect class="a" x="109.31" y="183.02" width="36.35" height="5.19"/>
      <path class="a" d="M115.8,182.37c0-6.1,4.65-11,10.39-11s10.39,4.94,10.39,11"/>
      <rect x="124.89" y="155.75" width="2.6" height="7.79" rx="1" ry="1"/>
    </g>
  </g>
</svg>
