<svg id="Слой_1" data-name="Слой 1" xmlns="http://www.w3.org/2000/svg" viewBox="0 0 100 100"><defs><style>.cls-1{fill:#fff;}</style></defs><title>animal</title><polygon class="cls-1" points="26.76 72.21 30.87 68.24 34.97 56.33 41.13 48.39 51.4 46.41 59.6 50.38 63.72 58.32 67.82 68.24 71.92 72.21 80.13 74.2 86.29 76.18 88.35 82.14 86.29 94.05 82.19 100 73.98 100 55.5 94.05 43.19 94.05 24.71 100 16.5 100 12.39 94.05 10.34 82.14 12.39 76.18 16.5 74.2 26.76 72.21"/><path class="cls-1" d="M43.23,16.61c1.75,9.25-2.12,16.8-8.92,18S20.57,29.33,18.82,20s2.33-17.73,9.1-18.93S41.46,7.33,43.23,16.61Z" transform="translate(0)"/><path class="cls-1" d="M53.48,15.84c-1.77,9.37,2.16,17,9,18.25S76.43,28.7,78.21,19.32,75.84,1.35,69,.13,55.27,6.46,53.48,15.84Z" transform="translate(0)"/><path class="cls-1" d="M77.43,42.78c-3.17,7.33-1,14.35,4.8,16.71s13.14-1.65,16.31-9,1-15.15-4.83-17.51S80.6,35.47,77.43,42.78Z" transform="translate(0)"/><path class="cls-1" d="M22.58,42.78c3.17,7.33,1,14.35-4.81,16.71s-13.14-1.64-16.31-9S.46,35.39,6.29,33,19.41,35.47,22.58,42.78Z" transform="translate(0)"/></svg>