<?xml version="1.0" encoding="utf-8"?>
<!-- Generator: Adobe Illustrator 21.1.0, SVG Export Plug-In . SVG Version: 6.00 Build 0)  -->
<svg version="1.1" id="Слой_1" xmlns="http://www.w3.org/2000/svg" xmlns:xlink="http://www.w3.org/1999/xlink" x="0px" y="0px"
	 viewBox="0 0 89.7 95.3" style="enable-background:new 0 0 89.7 95.3;" xml:space="preserve">
<style type="text/css">
	.st0{fill:none;}
	.st1{fill:#FFFFFF;}
</style>
<title>bad_services</title>
<polygon class="st0" points="77.1,81.9 45.3,81.9 13.6,81.9 13.6,35.7 77.1,35.7 "/>
<ellipse class="st0" cx="45.3" cy="81.2" rx="31.8" ry="14.2"/>
<polygon class="st0" points="13.6,35.7 26.1,23.8 26.1,8.2 64.6,8.2 64.6,24.6 77.1,35.7 77.1,40.5 13.6,40.5 "/>
<ellipse class="st0" cx="45.3" cy="8.2" rx="19.2" ry="8.2"/>
<path class="st1" d="M28.1,11.7v10.9c0,0,0.9,4.7,10,6.3c9.1,1.6,10.9,0,10.9,0l-0.9-12.5c-4.3,0-8.5-0.5-12.7-1.6
	C29.9,13.3,28.1,11.7,28.1,11.7z"/>
<path class="st1" d="M62.6,11.7v10.9c0,0-0.9,4.7-10,6.3c-9.1,1.6-10,0-10,0L39,15.6c0,0,10.9,0.8,16.3-0.8S62.6,11.7,62.6,11.7z"/>
<ellipse class="st1" cx="45.3" cy="7.8" rx="17.2" ry="6.3"/>
<path class="st1" d="M63.5,25l9.9,9.3c0,0-0.8,6.4-9.9,9.3S47.8,46.5,37,45.8s-17.4-6.4-19-8.5s-0.8-2.9-0.8-2.9l10-9.2
	c0,0,3.3,5,11.6,6.4s11.6,0,15.7-0.7c3.3-0.7,8.3-4.3,8.3-4.3L63.5,25z"/>
<polygon class="st1" points="63.5,27.9 62,27 63.5,25.2 65.3,27.3 "/>
<path class="st1" d="M62.2,46.6c-9.2,2.2-27.5,1.1-27.5,1.1l0,0c-2.1-0.3-4.2-0.7-6.2-1.1c-9.2-2.2-12.2-6-12.2-6v41.8
	c0,0,1.5,6.6,16.8,8.8c5.7,0.8,9.7,1,12.5,1c2.5,0.1,6.3-0.1,12-1c15.3-2.2,16.8-8.8,16.8-8.8V40.6C74.4,40.6,71.4,44.4,62.2,46.6z
	 M65.2,77.6c-2.5,0.7-4.9,0.7-6.5-1.4c-0.8-0.7-0.8-2.8-0.8-2.8l-12.4-4.9l-12.4,4.9c0,0,0,2.1-0.8,2.8c-1.6,2.1-4,2.1-6.5,1.4
	s-3.3-3.5-2.5-4.2s-0.8-4.2,0.8-4.9c1.6-0.5,3.3-0.7,4.9-0.7l7.3-2.9l-5.4-2.7c-2.1,1.2-4.6,1-6.6-0.7c-3.3-2.8,0.8-6.3,0.8-6.3
	c0.7-0.1,1.3-0.6,1.6-1.4c0.8-1.4,2.5-1.4,4.1-1.4c1.6,0,2.5,3.5,2.5,3.5l12.2,5.2l12.2-5.2c0,0,0.8-3.5,2.5-3.5s3.3,0,4.1,1.4
	c0.3,0.8,0.9,1.3,1.6,1.4c0,0,4.1,3.5,0.8,6.3c-1.9,1.6-4.4,1.9-6.5,0.7l-5.4,2.7l7.2,2.9c1.6,0,3.3,0.2,4.9,0.7
	c1.6,0.7,0,4.2,0.8,4.9S67.7,76.9,65.2,77.6z"/>
<rect class="st0" width="13" height="95.3"/>
<rect x="76.7" class="st0" width="13" height="95.3"/>
</svg>
