<?xml version="1.0" encoding="utf-8"?>
<!-- Generator: Adobe Illustrator 22.0.1, SVG Export Plug-In . SVG Version: 6.00 Build 0)  -->
<svg version="1.1" id="Слой_1" xmlns="http://www.w3.org/2000/svg" xmlns:xlink="http://www.w3.org/1999/xlink" x="0px" y="0px"
	 viewBox="0 0 89.7 95.3" style="enable-background:new 0 0 89.7 95.3;" xml:space="preserve">
<style type="text/css">
	.st0{fill:none;}
	.st1{fill:#FFFFFF;}
</style>
<title>bad_services</title>
<polygon class="st0" points="76.6,81.9 44.8,81.9 13.1,81.9 13.1,35.7 76.6,35.7 "/>
<ellipse class="st0" cx="44.8" cy="81.2" rx="31.8" ry="14.2"/>
<polygon class="st0" points="13.1,35.7 25.6,23.8 25.6,8.2 64.1,8.2 64.1,24.6 76.6,35.7 76.6,40.5 13.1,40.5 "/>
<ellipse class="st0" cx="44.8" cy="8.2" rx="19.2" ry="8.2"/>
<path class="st1" d="M27.6,11.7v10.9c0,0,0.9,4.7,10,6.3c9.1,1.6,10.9,0,10.9,0l-0.9-12.5c-4.3,0-8.5-0.5-12.7-1.6
	C29.4,13.3,27.6,11.7,27.6,11.7z"/>
<path class="st1" d="M62.1,11.7v10.9c0,0-0.9,4.7-10,6.3c-9.1,1.6-10,0-10,0l-3.6-13.3c0,0,10.9,0.8,16.3-0.8S62.1,11.7,62.1,11.7z"
	/>
<ellipse class="st1" cx="44.8" cy="7.8" rx="17.2" ry="6.3"/>
<path class="st1" d="M63,25l9.9,9.3c0,0-0.8,6.4-9.9,9.3s-15.7,2.9-26.5,2.2s-17.4-6.4-19-8.5s-0.8-2.9-0.8-2.9l10-9.2
	c0,0,3.3,5,11.6,6.4s11.6,0,15.7-0.7c3.3-0.7,8.3-4.3,8.3-4.3L63,25z"/>
<polygon class="st1" points="63,27.9 61.5,27 63,25.2 64.8,27.3 "/>
<path class="st1" d="M15.8,40.6v41.8c0,0,1.5,6.6,16.8,8.8s18.3,0,18.3,0l-1.5-42.4c0,0-12.2,0-21.4-2.2S15.8,40.6,15.8,40.6z"/>
<path class="st1" d="M73.9,40.6v41.8c0,0-1.5,6.6-16.8,8.8s-16.8,0-16.8,0l-6.1-43.5c0,0,18.3,1.1,27.5-1.1S73.9,40.6,73.9,40.6z"/>
<path class="st0" d="M36.1,65l-5.7-2.8c-2.1,1.2-4.6,1-6.6-0.7c-3.3-2.8,0.8-6.3,0.8-6.3c0.7-0.1,1.3-0.6,1.6-1.4
	c0.8-1.4,2.5-1.4,4.1-1.4s2.5,3.5,2.5,3.5l13.1,5.6l15.6,6.3c1.6,0,3.3,0.2,4.9,0.7c1.6,0.7,0,4.2,0.8,4.9s0,3.5-2.5,4.2
	s-4.9,0.7-6.5-1.4c-0.8-0.7-0.8-2.8-0.8-2.8L36.1,65z"/>
<path class="st0" d="M54,65l5.7-2.8c2.1,1.2,4.6,0.9,6.5-0.7c3.3-2.8-0.8-6.3-0.8-6.3c-0.7-0.1-1.3-0.6-1.6-1.4
	c-0.8-1.4-2.4-1.4-4.1-1.4c-1.7,0-2.5,3.5-2.5,3.5l-13.1,5.6l-15.6,6.3c-1.6,0-3.3,0.2-4.9,0.7c-1.6,0.7,0,4.2-0.8,4.9
	c-0.8,0.7,0,3.5,2.5,4.2s4.9,0.7,6.5-1.4c0.8-0.7,0.8-2.8,0.8-2.8L54,65z"/>
</svg>
