<?xml version="1.0" encoding="utf-8"?>
<!-- Generator: Adobe Illustrator 21.1.0, SVG Export Plug-In . SVG Version: 6.00 Build 0)  -->
<svg version="1.1" id="Слой_1" xmlns="http://www.w3.org/2000/svg" xmlns:xlink="http://www.w3.org/1999/xlink" x="0px" y="0px"
	 viewBox="0 0 100 100" style="enable-background:new 0 0 100 100;" xml:space="preserve">
<style type="text/css">
	.st0{fill:#FFFFFF;}
</style>
<title>death</title>
<path class="st0" d="M94.5,43c3.5-3.8,5.5-8,5.5-12.5C100,15.2,77.6,0,50,0S0,15.3,0,30.5C0,35,2,39.3,5.5,43l3,6.6
	c1.7,3.6,2.7,7.5,2.9,11.5c-0.2,3.9-1.1,7.8-2.9,11.4c0,0-1.9,4.8,1.9,6.7c3.8,1.9,6.7,3.9,10.5,4.8c1.7,0.3,3.3,0.9,4.8,1.5V100
	h49.5V84.5c1.5-0.6,3.1-1.1,4.8-1.5c3.8-1,6.7-2.9,10.5-4.8c3.8-1.9,1.9-6.7,1.9-6.7c-1.7-3.6-2.6-7.4-2.8-11.4
	c0.1-4,1.1-7.9,2.8-11.5L94.5,43z M30,62.8c-7.1,0-12.8-5.7-12.8-12.8c0-7.1,5.7-12.8,12.8-12.8c7.1,0,12.8,5.7,12.8,12.8
	C42.8,57.1,37.1,62.8,30,62.8z M59.1,79.9c0,0.6-0.5,1.1-1.1,1.2H42.1c-0.6,0-1.1-0.5-1.1-1.2v-5.4c0-0.6,8-16.4,8.6-16.4h0.9
	c0.6,0,8.6,15.7,8.6,16.4V79.9z M70,62.8c-7.1,0-12.8-5.7-12.8-12.8c0-7.1,5.7-12.8,12.8-12.8c7.1,0,12.8,5.7,12.8,12.8
	C82.8,57.1,77.1,62.8,70,62.8z"/>
</svg>
