<?xml version="1.0" encoding="utf-8"?>
<!-- Generator: Adobe Illustrator 21.1.0, SVG Export Plug-In . SVG Version: 6.00 Build 0)  -->
<svg version="1.1" id="Слой_1" xmlns="http://www.w3.org/2000/svg" xmlns:xlink="http://www.w3.org/1999/xlink" x="0px" y="0px"
	 viewBox="0 0 100 100" style="enable-background:new 0 0 100 100;" xml:space="preserve">
<style type="text/css">
	.st0{fill:#FFFFFF;}
	.st1{fill:none;}
</style>
<title>dtp</title>
<path class="st0" d="M32.3,56.1h6.5c1.5,0,2.8,1.2,2.8,2.7l0,0l0,0v21.1c0,1.5-1.3,2.7-2.8,2.7l0,0h-6.5c-1.5,0-2.8-1.2-2.8-2.7l0,0
	V58.8C29.6,57.3,30.8,56.1,32.3,56.1L32.3,56.1L32.3,56.1z"/>
<path class="st0" d="M90.7,56.1h6.6c1.5,0,2.8,1.2,2.8,2.7l0,0v21.1c0,1.5-1.3,2.7-2.8,2.7h-6.5c-1.5,0-2.8-1.2-2.8-2.7l0,0V58.8
	C87.9,57.3,89.1,56,90.7,56.1L90.7,56.1L90.7,56.1z"/>
<polygon class="st0" points="47.7,27.3 65.9,27.3 65.9,53.1 31.1,53.1 43.2,29.5 "/>
<polygon class="st0" points="81.8,27.3 63.6,27.3 63.6,53.1 98.5,53.1 86.4,29.5 "/>
<polygon class="st1" points="48.7,31.7 62.9,31.7 62.9,51.6 35.6,51.6 45.1,33.4 "/>
<polygon class="st1" points="80.9,31.7 66.7,31.7 66.7,51.6 93.9,51.6 84.4,33.4 "/>
<rect x="60.6" y="31.7" class="st1" width="9.1" height="19.9"/>
<path class="st0" d="M31.1,53.1l-1.6,4.4V76h35.7V53.1H31.1z M40.5,68.6c-3.1,0-5.7-2.5-5.7-5.5c0-3,2.6-5.5,5.7-5.5
	s5.7,2.5,5.7,5.5C46.2,66.1,43.6,68.6,40.5,68.6z"/>
<path class="st0" d="M98.5,53.1H64.4V76H100V57.5L98.5,53.1z M89,68.6c-3.1,0-5.7-2.5-5.7-5.5c0-3,2.6-5.5,5.7-5.5s5.7,2.5,5.7,5.5
	C94.7,66.1,92.1,68.6,89,68.6z"/>
<polygon class="st0" points="28.8,42.8 2.3,42 0,41.3 29.5,41.3 "/>
<polygon class="st0" points="28.4,42.2 0.5,12.7 1.1,12.3 29.5,41.3 "/>
<polygon class="st0" points="37.1,25.8 0.6,12.8 0.8,12.1 37.9,25.1 "/>
<polygon class="st0" points="27.3,50.2 2.3,42 2.1,41.5 27.6,48.6 "/>
<polygon class="st0" points="36.9,25.4 31.1,0 32,1.1 37.9,25.1 "/>
<polyline class="st0" points="49.2,21.4 31.8,1.5 31.1,0 51.5,21.4 "/>
<polyline class="st0" points="37.8,100 4.1,100 21.4,71.8 "/>
<path class="st0" d="M21.5,77.2L9.1,97.5h24.2L21.5,77.2z M21.3,85.1l5.1,8.6H16L21.3,85.1z"/>
</svg>
