<?xml version="1.0" encoding="utf-8"?>
<!-- Generator: Adobe Illustrator 21.1.0, SVG Export Plug-In . SVG Version: 6.00 Build 0)  -->
<svg version="1.1" id="Слой_1" xmlns="http://www.w3.org/2000/svg" xmlns:xlink="http://www.w3.org/1999/xlink" x="0px" y="0px"
	 viewBox="0 0 100 100" style="enable-background:new 0 0 100 100;" xml:space="preserve">
<style type="text/css">
	.st0{fill:#FFFFFF;}
	.st1{fill:none;}
</style>
<title>dtp</title>
<path class="st0" d="M86.4,29.5l-4.6-2.2H65.9h-2.3H47.7l-4.5,2.2L31.1,53.1h32.5h2.3h32.6L86.4,29.5z M62.9,51.6h-1.5H35.6
	l9.5-18.2l3.6-1.7h13.8h0.4h18l3.5,1.7l9.5,18.2H62.9z"/>
<rect x="60.6" y="31.7" class="st1" width="9.1" height="19.9"/>
<path class="st0" d="M31.1,53.1l-1.6,4.4V76h35.7V53.1H31.1z M40.5,68.6c-3.1,0-5.7-2.5-5.7-5.5s2.6-5.5,5.7-5.5s5.7,2.5,5.7,5.5
	S43.6,68.6,40.5,68.6z"/>
<path class="st0" d="M98.5,53.1H64.4V76H100V57.5L98.5,53.1z M89,68.6c-3.1,0-5.7-2.5-5.7-5.5s2.6-5.5,5.7-5.5s5.7,2.5,5.7,5.5
	S92.1,68.6,89,68.6z"/>
<polygon class="st0" points="28.8,42.8 2.3,42 0,41.3 29.5,41.3 "/>
<polygon class="st0" points="28.4,42.2 0.5,12.7 1.1,12.3 29.5,41.3 "/>
<polygon class="st0" points="37.1,25.8 0.6,12.8 0.8,12.1 37.9,25.1 "/>
<polygon class="st0" points="27.3,50.2 2.3,42 2.1,41.5 27.6,48.6 "/>
<polygon class="st0" points="36.9,25.4 31.1,0 32,1.1 37.9,25.1 "/>
<polyline class="st0" points="49.2,21.4 31.8,1.5 31.1,0 51.5,21.4 "/>
<g>
	<polygon class="st0" points="21.3,85.1 16,93.7 26.4,93.7 	"/>
	<path class="st0" d="M21.4,71.8L4.1,100h33.7L21.4,71.8z M21.5,77.2l11.8,20.3H9.1L21.5,77.2z"/>
</g>
<path class="st0" d="M40.7,68.6c-3.1,0-5.5-2.5-5.5-5.5s2.5-5.5,5.5-5.5c0.2,0,0.4,0,0.6,0c-0.5-0.9-1.4-1.5-2.5-1.5h-6.5
	c-1.5,0-2.7,1.2-2.8,2.7v21.1c0,1.5,1.3,2.7,2.8,2.7h6.5c1.5,0,2.8-1.2,2.8-2.7V68.6C41.3,68.6,41,68.6,40.7,68.6z"/>
<path class="st0" d="M97.3,56.1h-6.6c-1.2-0.1-2.1,0.6-2.5,1.6c0.2,0,0.4,0,0.7,0c3.1,0,5.5,2.5,5.5,5.5c0,3.1-2.5,5.5-5.5,5.5
	c-0.3,0-0.6,0-0.9-0.1v11.3c0,1.5,1.3,2.7,2.8,2.7h6.5c1.5,0,2.8-1.2,2.8-2.7V58.8C100.1,57.3,98.8,56.1,97.3,56.1z"/>
</svg>
