<?xml version="1.0" encoding="utf-8"?>
<!-- Generator: Adobe Illustrator 21.1.0, SVG Export Plug-In . SVG Version: 6.00 Build 0)  -->
<svg version="1.1" id="Слой_1" xmlns="http://www.w3.org/2000/svg" xmlns:xlink="http://www.w3.org/1999/xlink" x="0px" y="0px"
	 viewBox="0 0 100 100" style="enable-background:new 0 0 100 100;" xml:space="preserve">
<style type="text/css">
	.st0{fill:#FFFFFF;}
	.st1{fill:none;}
</style>
<title>fire</title>
<path class="st0" d="M8.7,35.9C6.8,38.3-4.6,53.6,2,71.8c3,7.9,8.4,14.7,15.5,19.3c15.5,10.3,38.7,11.6,55.3,3.7
	c30.6-14.6,31-54.3,22.2-58.9c-7.7,1.8-20.7,16.3-24.3,13.8c-2.6-1.8,1.8-11.4,1.1-23C70.8,11.5,50.7,2.8,45.2,0
	C41.9,4.6,43,31.3,22,41.4"/>
<path class="st1" d="M21.8,58.6c-1.2,1.6-8.6,11.5-4.3,23.2c1.9,5.1,5.4,9.5,10,12.5c10,6.6,25,7.5,35.8,2.4
	c19.8-9.5,20-35.1,14.3-38.1c-5,1.2-13.4,10.5-15.7,8.9c-1.7-1.1,1.2-7.3,0.7-14.9C62,42.9,49,37.2,45.4,35.4
	c-2.2,3-1.4,20.2-15,26.8"/>
</svg>
