<?xml version="1.0" encoding="utf-8"?>
<!-- Generator: Adobe Illustrator 21.1.0, SVG Export Plug-In . SVG Version: 6.00 Build 0)  -->
<svg version="1.1" id="Слой_1" xmlns="http://www.w3.org/2000/svg" xmlns:xlink="http://www.w3.org/1999/xlink" x="0px" y="0px"
	 viewBox="0 0 100 100" style="enable-background:new 0 0 100 100;" xml:space="preserve">
<style type="text/css">
	.st0{fill:#FFFFFF;}
	.st1{fill:none;}
</style>
<title>lost_man</title>
<ellipse class="st0" cx="50" cy="21" rx="22.9" ry="21"/>
<ellipse class="st0" cx="50" cy="78.7" rx="50" ry="21.3"/>
<path class="st1" d="M48.3,28.4c-0.7-1.8-1.4-7.5,1.3-10.6s4.9-5,5.2-7c0.2-2.2-1.4-4-3.6-4.2c0,0-0.1,0-0.1,0c-0.5-0.1-1,0-1.6,0.1
	c-2.5,0.6-3.3,1.8-5.3,5.3c-0.3,0.6-1.5,0.6-2,0.6c-0.7,0.1-1.4-0.1-2-0.6c-2.2-2,1.5-10.4,9.2-10.6c3.2-0.1,6.3,1.2,8.5,3.5
	c3.8,4.1,2.8,9.1-0.6,12.3c-1.8,1.7-3,2.5-3.9,4.7c-1,2.4-0.7,4.7-0.7,6.5"/>
<ellipse class="st1" cx="51.1" cy="33.8" rx="3" ry="2.7"/>
</svg>
