<?xml version="1.0" encoding="utf-8"?>
<!-- Generator: Adobe Illustrator 21.1.0, SVG Export Plug-In . SVG Version: 6.00 Build 0)  -->
<svg version="1.1" id="Слой_1" xmlns="http://www.w3.org/2000/svg" xmlns:xlink="http://www.w3.org/1999/xlink" x="0px" y="0px"
	 viewBox="0 0 100 100" style="enable-background:new 0 0 100 100;" xml:space="preserve">
<style type="text/css">
	.st0{fill:#010101;}
	.st1{fill:none;}
	.st2{fill:#FFFFFF;}
</style>
<title>theft</title>
<path class="st0" d="M30.9,48.5"/>
<line class="st1" x1="54.3" y1="53.4" x2="54.7" y2="53.4"/>
<line class="st1" x1="54.3" y1="54.7" x2="54.6" y2="54.7"/>
<path class="st0" d="M58,50.9"/>
<path class="st0" d="M59.5,50.9"/>
<path class="st0" d="M50,74.8c0-3.1,3-5.6,6.6-5.6s6.6,2.5,6.6,5.6"/>
<rect x="21.2" y="16.9" class="st2" width="23.7" height="13.7"/>
<rect x="15.5" class="st1" width="36.1" height="17.7"/>
<rect x="16.4" y="0.8" class="st2" width="34.2" height="16.1"/>
<path class="st2" d="M44,47.6c-1.1,0.2-3.5-21.3-14.2-23.4c-7-1.4-17.6,5.4-20.9,8.1C8,32.9,7.4,33.5,7,33.9c-2,1.6-5.7,6.4-6.7,8.9
	c-0.4,1-0.4,2.2,0,3.3c0.9,0.6,2.2,0.3,2.8-0.6c0-0.1,0.1-0.1,0.1-0.2C3.9,44,4.9,42.9,6,41.9l4.7-4c2.7-2.3,7.6-3.2,7.6-1.6
	c0,0.7,0,0.8-1,1.6c0,0-4,2.5-9.5,12.1c0,0-1.9,6.5-1.9,8.1c0,0.7-1,4,0,5.7c0.4,0.9,1.5,1.3,2.5,1c0.1,0,0.3-0.1,0.4-0.2
	c1.9-0.8,2.2-6.6,2.8-8.1c2.9-6.5,4.5-7.2,8.6-10.5c2.1-1.7,2.9,0.6,2.9,0.8c0,1.6-2.2,3.9-3.8,7.3c-1.8,3.8-1.9,3.2-2.9,8.9
	s-1,6.5-1,8.1c0,0.8,0.1,2.4,1.9,2.4s3-6.3,5.7-12.9c1.1-2.5,2.5-4.9,4.1-7.2c0.8-1.5,2.2-2.6,3.9-3.1c0.5-0.1,1.2-0.4,1.5-0.2
	c0.6,0.5-1,2.3-1.9,4c-1.3,2.8-1.3,6.1,0,8.9c2.3,4.6,9.9,6.6,15.2,6.5c9.3-0.2,17.4-7,19.9-13.7c6.1-16.1-18.6-34.4-23.7-32.3
	C37.3,25.4,45.1,47.4,44,47.6z"/>
<path class="st1" d="M60.1,58.9c-0.1,2.4-1.1,4.8-2.8,6.5c-2.5,2.5-5.9,4-9.5,4c-5.8,0-12.3-4.3-12.3-10.5c0-5.8,5.5-10.5,12.3-10.5
	l0,0C55.2,48.4,60,54.1,60.1,58.9z"/>
<rect x="34.5" y="28.2" class="st2" width="10.4" height="20.2"/>
<path class="st2" d="M26.8,83.9h70.5c1.4-0.1,2.6,0.9,2.7,2.3v11.5c-0.1,1.4-1.3,2.4-2.7,2.3H26.8c-1.4,0.1-2.6-0.9-2.8-2.3
	c0,0,0,0,0,0V86.2C24.1,84.8,25.3,83.8,26.8,83.9C26.8,83.9,26.8,83.9,26.8,83.9z"/>
<polyline class="st1" points="58.7,63.7 79.1,63.7 79.1,91.9 43,91.9 43,63.7 58.1,63.7 "/>
<polyline class="st2" points="58.6,65.3 77.2,65.3 77.2,91.9 44.9,91.9 44.9,65.3 58.1,65.3 "/>
<path class="st1" d="M50,72.6h0.2c0.2,0,0.4,0.1,0.4,0.3c0,0,0,0,0,0v18.7c0,0.2-0.2,0.3-0.4,0.3c0,0,0,0,0,0H50
	c-0.2,0-0.4-0.1-0.4-0.3c0,0,0,0,0,0V72.9C49.6,72.7,49.8,72.6,50,72.6C50,72.6,50,72.6,50,72.6z"/>
<path class="st1" d="M71.9,72.6h0.2c0.2,0,0.3,0.1,0.4,0.3v18.7c0,0.2-0.2,0.3-0.4,0.3h-0.2c-0.2,0-0.3-0.1-0.4-0.3V72.9
	C71.5,72.7,71.7,72.6,71.9,72.6z"/>
<path class="st1" d="M40.5,95.2h41c0.2,0,0.3,0.1,0.4,0.3v0.2c0,0.2-0.2,0.3-0.4,0.3h-41c-0.2,0-0.3-0.1-0.4-0.3v-0.2
	C40.2,95.3,40.4,95.1,40.5,95.2z"/>
<path class="st1" d="M52.9,69.3h16.4c0.2,0,0.3,0.1,0.4,0.3v0.2c0,0.2-0.2,0.3-0.4,0.3H52.9c-0.2,0-0.3-0.1-0.4-0.3v-0.2
	C52.5,69.5,52.7,69.3,52.9,69.3z"/>
<rect x="48.7" y="91.9" class="st2" width="26.6" height="3.2"/>
<path class="st1" d="M53.5,91.5c0-3.8,3.4-6.8,7.6-6.8s7.6,3.1,7.6,6.8"/>
<path class="st1" d="M60.8,75h0.4c0.4,0,0.7,0.3,0.7,0.6v3.6c0,0.4-0.4,0.6-0.7,0.6h-0.4c-0.4,0-0.7-0.3-0.7-0.6v-3.6
	C60.2,75.3,60.5,75,60.8,75z"/>
</svg>
