<?xml version="1.0" encoding="utf-8"?>
<!-- Generator: Adobe Illustrator 22.0.1, SVG Export Plug-In . SVG Version: 6.00 Build 0)  -->
<svg version="1.1" id="Слой_1" xmlns="http://www.w3.org/2000/svg" xmlns:xlink="http://www.w3.org/1999/xlink" x="0px" y="0px"
	 viewBox="0 0 99.5 100" style="enable-background:new 0 0 99.5 100;" xml:space="preserve">
<style type="text/css">
	.st0{fill:#FFFFFF;}
	.st1{fill:none;}
</style>
<title>violence</title>
<polygon class="st0" points="5.1,76.2 13.4,67.7 10.7,56.4 19,42.3 30.1,39.5 35.7,33.9 41.3,33.9 46.8,36.7 46.8,39.5 49.6,39.5 
	55.1,42.4 55.1,45.2 57.9,45.2 63.4,53.7 63.4,53.7 63.4,53.7 63.4,56.5 66.2,59.3 66.2,67.8 46.7,84.7 38.4,84.7 27.3,96 "/>
<polygon class="st1" points="7.9,75.1 15.5,67.4 13,57.2 20.5,44.4 30.6,41.8 35.7,36.7 40.8,36.7 45.8,39.3 45.8,41.8 48.3,41.8 
	53.3,44.4 53.3,47 55.9,47 60.9,54.7 60.9,54.7 60.9,54.7 60.9,57.3 63.4,59.8 63.4,67.6 45.7,82.9 38.1,82.9 28,93.2 "/>
<polygon class="st0" points="27.4,42.3 41.2,48 38.4,56.5 27.3,56.4 27.3,50.8 24.6,50.8 24.5,59.3 41.2,59.3 44,45.2 32,40.4 "/>
<polygon class="st0" points="36.3,59.3 38.4,64.9 46.7,67.8 63.4,56.5 63.4,53.7 57.9,45.2 55.1,45.2 52.3,48 41.8,56.5 "/>
<polygon class="st1" points="40.3,58.6 41.9,62.8 48.1,64.9 60.6,56.5 60.6,54.4 56.5,48 54.4,48 52.3,50.1 44.4,56.5 "/>
<polygon class="st0" points="46.4,39.4 48.4,41.4 43.4,46.8 41.4,44.9 "/>
<polygon class="st0" points="46.7,67.8 49.5,73.4 56.9,75.9 66.2,67.8 66.2,59.3 63.4,56.5 "/>
<polygon class="st1" points="49.6,67.3 51.6,71.3 56.8,73 63.4,67.3 63.4,61.3 61.4,59.3 "/>
<polyline class="st0" points="16.3,36.7 10.8,16.9 10.8,14 13.5,14.1 35.7,22.6 46.9,2.8 49.6,0 52.4,2.8 63.5,22.6 85.7,22.7 
	88.4,22.7 88.4,25.5 80.1,42.4 96.7,56.6 99.5,59.4 96.7,62.2 74.5,70.7 77.2,84.8 77.2,87.6 74.4,87.6 57.8,87.6 57.8,84.7 
	74.4,84.8 71.7,67.8 96.7,59.4 77.3,42.4 85.7,25.5 60.7,25.4 49.6,2.8 35.7,25.4 13.5,16.9 19,36.7 "/>
<polygon class="st1" points="5.8,71.3 30.6,93.3 24.8,100 0,78 "/>
</svg>
