<?xml version="1.0" encoding="utf-8"?>
<!-- Generator: Adobe Illustrator 21.1.0, SVG Export Plug-In . SVG Version: 6.00 Build 0)  -->
<svg version="1.1" id="Слой_1" xmlns="http://www.w3.org/2000/svg" xmlns:xlink="http://www.w3.org/1999/xlink" x="0px" y="0px"
	 viewBox="0 0 100 100" style="enable-background:new 0 0 100 100;" xml:space="preserve">
<style type="text/css">
	.st0{fill:#FFFFFF;}
	.st1{fill:none;}
</style>
<title>car_theft</title>
<path class="st0" d="M17.7,80.5h1.5c3,0,5.5,2.4,5.5,5.5c0,0,0,0,0,0.1v8c0,3-2.5,5.5-5.5,5.5c0,0,0,0,0,0h-1.5
	c-3,0-5.5-2.4-5.5-5.5c0,0,0,0,0,0v-8C12.1,83,14.6,80.5,17.7,80.5C17.6,80.5,17.7,80.5,17.7,80.5z"/>
<path class="st0" d="M64.1,83.1L64.1,83.1c3,0,5.5,2.4,5.5,5.5v6c0,3-2.5,5.5-5.5,5.5c0,0,0,0,0,0l0,0c-3,0-5.5-2.4-5.5-5.5
	c0,0,0,0,0,0v-6C58.6,85.5,61,83.1,64.1,83.1C64.1,83.1,64.1,83.1,64.1,83.1z"/>
<path class="st0" d="M63.8,61.2H18.6c-3.6,0-7.5-1.1-7.5-4.1l1.1-15.6c0-3,2.9-5.5,6.4-5.5h45.1c3.5,0,6.5,2.5,6.5,5.5l1.1,16.1
	C71.3,60.6,67.3,61.2,63.8,61.2z"/>
<path class="st0" d="M7.4,57.4h65.9c4.1,0,7.4,3.2,7.4,7.3c0,0,0,0,0,0v13.5c0,4.1-3.3,7.3-7.4,7.3c0,0,0,0,0,0H7.4
	c-4.1,0-7.4-3.2-7.4-7.3c0,0,0,0,0,0V64.7C0,60.6,3.3,57.4,7.4,57.4C7.4,57.4,7.4,57.4,7.4,57.4z"/>
<path class="st1" d="M63.2,67.2H18c-1.7,0-4.2-1.4-4.2-3l1.1-22.1c0.1-1.6,1.5-2.9,3.1-2.8h45.1c1.6-0.1,3,1.2,3.1,2.8l1.1,22.1
	C67.4,65.8,64.9,67.2,63.2,67.2z"/>
<path class="st1" d="M9.6,58.5h61.5c4.1,0,7.4,3.3,7.4,7.3c0,0,0,0,0,0v11c0,4.1-3.3,7.3-7.4,7.3c0,0,0,0,0,0H9.6
	c-4.1,0-7.4-3.3-7.4-7.3c0,0,0,0,0,0v-11C2.2,61.7,5.5,58.5,9.6,58.5z"/>
<ellipse class="st0" cx="19.1" cy="70.2" rx="6.9" ry="6.8"/>
<ellipse class="st0" cx="62.7" cy="70.2" rx="6.9" ry="6.8"/>
<path class="st0" d="M32.9,66.1h16c0.8,0,1.4,0.6,1.4,1.4c0,0,0,0,0,0l0,0c0,0.8-0.6,1.4-1.4,1.4c0,0,0,0,0,0h-16
	c-0.8,0-1.4-0.6-1.4-1.4c0,0,0,0,0,0l0,0C31.5,66.7,32.1,66.1,32.9,66.1C32.9,66.1,32.9,66.1,32.9,66.1z"/>
<path class="st0" d="M32.9,72.1h16c0.8,0,1.4,0.6,1.4,1.4c0,0,0,0,0,0l0,0c0,0.8-0.6,1.4-1.4,1.4c0,0,0,0,0,0h-16
	c-0.8,0-1.4-0.6-1.4-1.4l0,0C31.5,72.7,32.1,72.1,32.9,72.1z"/>
<ellipse class="st0" cx="67.1" cy="32.5" rx="32.9" ry="32.5"/>
<path class="st0" d="M64.7,100h-1.5c-3,0-5.5-2.4-5.5-5.5c0,0,0,0,0,0v-6.1c0-1.4-0.1-3.3,0.8-4.3s3.2-1.2,4.7-1.2l1.4,1.2
	c1.5,0,3.9-1,4.9,0s0.6,2.7,0.6,4.3v6.1C70.2,97.5,67.8,100,64.7,100z"/>
<ellipse class="st1" cx="67.1" cy="32.5" rx="31.2" ry="30.9"/>
<path class="st0" d="M81.5,61.2c-4.5,0.2-8.6,2.6-13.1,2.8c-4.3,0.2-8.9-1.9-13.1-1.7c-1.7-1.2-4.8-2.4-6.5-3.8
	c-2.3-1.8-3.5-3.8-4.3-4.7v-5.6c0-3.8,3.1-6.8,6.8-6.8h32.5c3.8,0,6.8,3,6.8,6.8v4.5C88.3,56.7,84.3,58.4,81.5,61.2z"/>
<path class="st1" d="M18.3,79.9L18.3,79.9c3,0,5.5,2.4,5.5,5.5c0,0,0,0,0,0v7.9c0,3-2.5,5.5-5.5,5.5c0,0,0,0,0,0l0,0
	c-3,0-5.5-2.4-5.5-5.5v-7.9C12.8,82.3,15.3,79.9,18.3,79.9z"/>
<path class="st1" d="M63.9,80.5L63.9,80.5c3,0,5.5,2.4,5.5,5.5c0,0,0,0,0,0.1v7.9c0,3-2.5,5.5-5.5,5.5c0,0,0,0,0,0l0,0
	c-3,0-5.5-2.4-5.5-5.5V86C58.4,83,60.8,80.5,63.9,80.5C63.9,80.5,63.9,80.5,63.9,80.5z"/>
<ellipse class="st0" cx="66.9" cy="24.7" rx="12.6" ry="12.5"/>
<path class="st1" d="M54.3,19.5h25.9c1,0,1.8,0.8,1.9,1.8c0,0,0,0,0,0v1.8c0,1-0.8,1.8-1.8,1.8c0,0,0,0,0,0H54.3
	c-1,0-1.8-0.8-1.8-1.8c0,0,0,0,0,0v-1.8C52.4,20.3,53.2,19.5,54.3,19.5C54.2,19.5,54.2,19.5,54.3,19.5z"/>
<ellipse class="st0" cx="61" cy="22.6" rx="3.1" ry="1.2"/>
<ellipse class="st0" cx="72.8" cy="22.6" rx="3.1" ry="1.2"/>
</svg>
