<svg xmlns="http://www.w3.org/2000/svg" width="216" height="320" viewBox="0 0 216 320">
  <defs>
    <style>
      .a {
        fill: #fff;
      }
    </style>
  </defs>
  <title>Ресурс 4</title>
  <g>
    <path d="M216,113c0,65-64,163-108,207C61.5,273.5,0,175.41,0,113S45.59,0,108,0,216,50.59,216,113Z"/>
    <rect class="a" x="51.72" y="168" width="20.28" height="31" rx="8.96" ry="8.96"/>
    <rect class="a" x="126.99" y="172.22" width="17.92" height="27.78" rx="8.96" ry="8.96"/>
    <path class="a" d="M135.41,136.37H62.2c-5.75,0-12.2-1.81-12.2-6.77L51.74,104c0-5,4.71-9,10.46-9h73.2c5.75,0,10.46,4.06,10.46,9l1.74,26.33C147.61,135.32,141.16,136.37,135.41,136.37Z"/>
    <rect class="a" x="32" y="130.1" width="130.84" height="46.09" rx="12" ry="12"/>
    <path d="M134.46,146.23H61.28c-2.79,0-6.87-2.35-6.87-4.9l1.79-36.18a4.88,4.88,0,0,1,5.08-4.62h73.19a4.88,4.88,0,0,1,5.08,4.62l1.79,36.18C141.33,143.88,137.26,146.23,134.46,146.23Z"/>
    <rect x="35.58" y="131.89" width="123.67" height="42.12" rx="12" ry="12"/>
    <circle class="a" cx="62.92" cy="151.16" r="11.2"/>
    <circle class="a" cx="133.72" cy="151.16" r="11.2"/>
    <rect class="a" x="83.08" y="144.44" width="30.47" height="4.48" rx="2.24" ry="2.24"/>
    <rect class="a" x="83.08" y="154.3" width="30.47" height="4.48" rx="2.24" ry="2.24"/>
    <circle class="a" cx="140.89" cy="89.32" r="53.32"/>
    <path class="a" d="M137,200h-2.36a9,9,0,0,1-9-9V181c0-2.37-.23-5.36,1.28-7s5.11-2,7.68-2l2.32,2c2.46,0,6.38-1.62,8,0s1,4.5,1,7V191A9,9,0,0,1,137,200Z"/>
    <circle cx="140.89" cy="89.32" r="50.63"/>
    <path class="a" d="M164.19,136.36c-7.31.32-14,4.31-21.3,4.62-6.89.3-14.41-3.07-21.3-2.77-2.74-1.91-7.71-3.94-10.59-6.21-3.82-3-5.61-6.27-7-7.66v-9.25A11.14,11.14,0,0,1,115.11,104h52.78A11.14,11.14,0,0,1,179,115.09v7.4C175.3,129,168.81,131.74,164.19,136.36Z"/>
    <rect x="52.72" y="167" width="17.92" height="30.81" rx="8.96" ry="8.96"/>
    <rect x="126.72" y="168" width="17.92" height="30.81" rx="8.96" ry="8.96"/>
    <circle class="a" cx="140.5" cy="76.5" r="20.5"/>
    <rect x="117" y="68" width="48" height="9" rx="3" ry="3"/>
    <ellipse class="a" cx="131" cy="73" rx="5" ry="2"/>
    <ellipse class="a" cx="150" cy="73" rx="5" ry="2"/>
  </g>
</svg>
