<?xml version="1.0" encoding="utf-8"?>
<!-- Generator: Adobe Illustrator 22.0.1, SVG Export Plug-In . SVG Version: 6.00 Build 0)  -->
<svg version="1.1" id="Слой_1" xmlns="http://www.w3.org/2000/svg" xmlns:xlink="http://www.w3.org/1999/xlink" x="0px" y="0px"
	 viewBox="0 0 100 100" style="enable-background:new 0 0 100 100;" xml:space="preserve">
<style type="text/css">
	.st0{fill:#FFFFFF;}
	.st1{fill:none;}
</style>
<title>death</title>
<rect x="25.7" y="46.7" class="st0" width="49.5" height="53.3"/>
<path class="st0" d="M100,30.5c0,15.3-22.4,27.6-50,27.6S0,45.7,0,30.5S22.4,0,50,0S100,15.2,100,30.5z"/>
<path class="st0" d="M2.8,37.2l5.7,12.4c1.7,3.6,2.7,7.5,2.9,11.5c-0.2,3.9-1.1,7.8-2.9,11.4c0,0-1.9,4.8,1.9,6.7s6.7,3.9,10.5,4.8
	c2,0.4,3.9,1.1,5.7,1.9V37.2H2.8z"/>
<path class="st0" d="M97.2,36.2l-4.8,12.4c-1.7,3.6-2.7,7.5-2.8,11.5c0.2,4,1.1,7.8,2.8,11.4c0,0,1.9,4.8-1.9,6.7S83.8,82,80,83
	c-2,0.5-3.9,1.1-5.7,1.9V36.2H97.2z"/>
<circle class="st1" cx="70" cy="50" r="12.8"/>
<circle class="st1" cx="30" cy="50" r="12.8"/>
<path class="st1" d="M50.5,58.1c0.6,0,8.6,15.7,8.6,16.4v5.4c0,0.6-0.5,1.1-1.1,1.2l0,0H42.1c-0.6,0-1.1-0.5-1.1-1.2l0,0v-5.4
	c0-0.6,8-16.4,8.6-16.4"/>
</svg>
