<svg xmlns="http://www.w3.org/2000/svg" width="216" height="320" viewBox="0 0 216 320">
  <defs>
    <style>
      .a {
        fill: #fff;
      }
    </style>
  </defs>
  <title>дтп</title>
  <g>
    <path d="M216,113c0,65-64,163-108,207C61.5,273.5,0,175.41,0,113S45.59,0,108,0,216,50.59,216,113Z"/>
    <g>
      <g>
        <path class="a" d="M80.85,128.64h9.69a4.12,4.12,0,0,1,4.12,4.12v32.11A4.13,4.13,0,0,1,90.54,169H80.85a4.13,4.13,0,0,1-4.13-4.13V132.76A4.12,4.12,0,0,1,80.85,128.64Z"/>
        <path class="a" d="M167.19,128.64h9.69a4.12,4.12,0,0,1,4.12,4.12v32.11a4.13,4.13,0,0,1-4.13,4.13h-9.69a4.13,4.13,0,0,1-4.13-4.13V132.76a4.12,4.12,0,0,1,4.12-4.12Z"/>
        <polygon class="a" points="78.97 124.15 129.42 124.15 129.42 158.91 76.73 158.91 76.73 130.88 78.97 124.15"/>
        <polygon class="a" points="178.76 124.15 128.3 124.15 128.3 158.91 181 158.91 181 130.88 178.76 124.15"/>
        <polygon class="a" points="103.64 84.91 130.54 84.91 130.54 124.15 78.97 124.15 96.91 88.27 103.64 84.91"/>
        <polygon class="a" points="154.09 84.91 127.18 84.91 127.18 124.15 178.76 124.15 160.82 88.27 154.09 84.91"/>
        <polygon points="105 91.64 126.06 91.64 126.06 121.91 85.7 121.91 99.74 94.23 105 91.64"/>
        <polygon points="152.73 91.64 131.67 91.64 131.67 121.91 172.03 121.91 157.99 94.23 152.73 91.64"/>
        <rect x="122.7" y="91.64" width="13.45" height="30.27"/>
        <circle cx="92.98" cy="139.29" r="8.41"/>
        <circle cx="164.74" cy="139.29" r="8.41"/>
      </g>
      <polygon class="a" points="75.61 108.45 36.36 107.33 33 106.21 76.73 106.21 75.61 108.45"/>
      <polygon class="a" points="75.05 107.57 33.76 62.8 34.61 62.07 76.73 106.21 75.05 107.57"/>
      <polygon class="a" points="87.94 82.67 33.86 62.82 34.23 61.76 89.06 81.55 87.94 82.67"/>
      <polygon class="a" points="73.36 119.67 36.36 107.33 36.15 106.45 73.88 117.23 73.36 119.67"/>
      <polygon class="a" points="87.64 82 78.97 43.42 80.31 45.05 89.06 81.55 87.64 82"/>
      <polyline class="a" points="105.88 75.94 80.09 45.67 78.97 43.42 109.24 75.94"/>
    </g>
    <polyline class="a" points="89 195.43 39 195.43 64.71 152.57"/>
    <polyline points="82.31 191.58 46.41 191.58 64.87 160.81"/>
    <polyline class="a" points="72.05 185.91 56.67 185.91 64.58 172.72"/>
  </g>
</svg>
