<?xml version="1.0" encoding="utf-8"?>
<!-- Generator: Adobe Illustrator 21.1.0, SVG Export Plug-In . SVG Version: 6.00 Build 0)  -->
<svg version="1.1" id="Слой_1" xmlns="http://www.w3.org/2000/svg" xmlns:xlink="http://www.w3.org/1999/xlink" x="0px" y="0px"
	 viewBox="0 0 100 100" style="enable-background:new 0 0 100 100;" xml:space="preserve">
<style type="text/css">
	.st0{fill:#FFFFFF;}
	.st1{fill:none;}
</style>
<title>dtp</title>
<path class="st0" d="M32.3,56.1h6.5c1.5,0,2.8,1.2,2.8,2.7c0,0,0,0,0,0l0,0v21.1c0,1.5-1.3,2.7-2.8,2.7c0,0,0,0,0,0h-6.5
	c-1.5,0-2.8-1.2-2.8-2.7c0,0,0,0,0,0V58.8C29.6,57.3,30.8,56.1,32.3,56.1L32.3,56.1L32.3,56.1z"/>
<path class="st0" d="M90.7,56.1h6.6c1.5,0,2.8,1.2,2.8,2.7l0,0v21.1c0,1.5-1.3,2.7-2.8,2.7h-6.5c-1.5,0-2.8-1.2-2.8-2.7l0,0V58.8
	C87.9,57.3,89.1,56,90.7,56.1C90.7,56.1,90.7,56.1,90.7,56.1L90.7,56.1z"/>
<polygon class="st0" points="31.1,53.1 65.2,53.1 65.2,76 29.5,76 29.5,57.5 "/>
<polygon class="st0" points="98.5,53.1 64.4,53.1 64.4,76 100,76 100,57.5 "/>
<polygon class="st0" points="47.7,27.3 65.9,27.3 65.9,53.1 31.1,53.1 43.2,29.5 "/>
<polygon class="st0" points="81.8,27.3 63.6,27.3 63.6,53.1 98.5,53.1 86.4,29.5 "/>
<polygon class="st1" points="48.7,31.7 62.9,31.7 62.9,51.6 35.6,51.6 45.1,33.4 "/>
<polygon class="st1" points="80.9,31.7 66.7,31.7 66.7,51.6 93.9,51.6 84.4,33.4 "/>
<rect x="60.6" y="31.7" class="st1" width="9.1" height="19.9"/>
<ellipse class="st1" cx="40.5" cy="63.1" rx="5.7" ry="5.5"/>
<ellipse class="st1" cx="89" cy="63.1" rx="5.7" ry="5.5"/>
<polygon class="st0" points="28.8,42.8 2.3,42 0,41.3 29.5,41.3 "/>
<polygon class="st0" points="28.4,42.2 0.5,12.7 1.1,12.3 29.5,41.3 "/>
<polygon class="st0" points="37.1,25.8 0.6,12.8 0.8,12.1 37.9,25.1 "/>
<polygon class="st0" points="27.3,50.2 2.3,42 2.1,41.5 27.6,48.6 "/>
<polygon class="st0" points="36.9,25.4 31.1,0 32,1.1 37.9,25.1 "/>
<polyline class="st0" points="49.2,21.4 31.8,1.5 31.1,0 51.5,21.4 "/>
<polyline class="st0" points="37.8,100 4.1,100 21.4,71.8 "/>
<polyline class="st1" points="33.3,97.5 9.1,97.5 21.5,77.2 "/>
<polyline class="st0" points="26.4,93.7 16,93.7 21.3,85.1 "/>
</svg>
