<?xml version="1.0" encoding="utf-8"?>
<!-- Generator: Adobe Illustrator 21.1.0, SVG Export Plug-In . SVG Version: 6.00 Build 0)  -->
<svg version="1.1" id="Слой_1" xmlns="http://www.w3.org/2000/svg" xmlns:xlink="http://www.w3.org/1999/xlink" x="0px" y="0px"
	 viewBox="0 0 100 100" style="enable-background:new 0 0 100 100;" xml:space="preserve">
<style type="text/css">
	.st0{fill:#FFFFFF;}
</style>
<title>fire</title>
<path class="st0" d="M95,35.9c-7.7,1.8-20.7,16.3-24.3,13.8c-2.6-1.8,1.8-11.4,1.1-23C70.8,11.5,50.7,2.8,45.2,0
	C41.9,4.6,43,31.3,22,41.4L8.7,35.9C6.8,38.3-4.6,53.6,2,71.8c3,7.9,8.4,14.7,15.5,19.3c6.9,4.6,15.3,7.4,24,8.4
	c-5.1-0.8-9.9-2.5-14-5.2c-4.6-3-8.1-7.4-10-12.5c-4.3-11.7,3.1-21.6,4.3-23.2l8.6,3.6c13.6-6.6,12.8-23.8,15-26.8
	C49,37.2,62,42.9,62.6,52.6c0.5,7.6-2.4,13.8-0.7,14.9c2.3,1.6,10.7-7.7,15.7-8.9c5.7,3,5.5,28.6-14.3,38.1
	c-3.8,1.8-8.1,2.8-12.5,3.1c7.8-0.2,15.4-1.9,22-5C103.4,80.2,103.8,40.5,95,35.9z"/>
</svg>
