<?xml version="1.0" encoding="utf-8"?>
<!-- Generator: Adobe Illustrator 21.1.0, SVG Export Plug-In . SVG Version: 6.00 Build 0)  -->
<svg version="1.1" id="Слой_1" xmlns="http://www.w3.org/2000/svg" xmlns:xlink="http://www.w3.org/1999/xlink" x="0px" y="0px"
	 viewBox="0 0 100 100" style="enable-background:new 0 0 100 100;" xml:space="preserve">
<style type="text/css">
	.st0{fill:#FFFFFF;}
</style>
<title>lost_man</title>
<ellipse class="st0" cx="50" cy="78.7" rx="50" ry="21.3"/>
<path class="st0" d="M50,0C37.4,0,27.1,9.4,27.1,21S37.4,42,50,42s22.9-9.4,22.9-21S62.6,0,50,0z M51.1,36.5c-1.7,0-3-1.2-3-2.7
	s1.3-2.7,3-2.7c1.7,0,3,1.2,3,2.7S52.8,36.5,51.1,36.5z M57.3,17.2c-1.8,1.7-3,2.5-3.9,4.7c-1,2.4-0.7,4.7-0.7,6.5h-4.4
	c-0.7-1.8-1.4-7.5,1.3-10.6c2.7-3.1,4.9-5,5.2-7c0.2-2.2-1.4-4-3.6-4.2h-0.1c-0.5-0.1-1,0-1.6,0.1C47,7.3,46.2,8.5,44.2,12
	c-0.3,0.6-1.5,0.6-2,0.6c-0.7,0.1-1.4-0.1-2-0.6C38,10,41.7,1.6,49.4,1.4c3.2-0.1,6.3,1.2,8.5,3.5C61.7,9,60.7,14,57.3,17.2z"/>
</svg>
