<svg xmlns="http://www.w3.org/2000/svg" width="216" height="320" viewBox="0 0 216 320">
  <defs>
    <style>
      .a {
        fill: #fff;
      }
    </style>
  </defs>
  <title>потерялся</title>
  <g>
    <g>
      <path d="M216,113c0,65-64,163-108,207C61.5,273.5,0,175.41,0,113S45.59,0,108,0,216,50.59,216,113Z"/>
      <ellipse class="a" cx="108.5" cy="68" rx="30.5" ry="31"/>
      <ellipse class="a" cx="108.5" cy="153.5" rx="66.5" ry="31.5"/>
    </g>
    <path d="M105.3,83c-.87-2.61-1.9-11.1,1.74-15.65,3.48-4.35,6.57-7.35,7-10.44a5.62,5.62,0,0,0-7-6.09c-3.33.89-4.35,2.61-7,7.83-.45.89-2,.89-2.61.87a3.26,3.26,0,0,1-2.61-.87c-3-3,1.88-15.35,12.17-15.65a14.29,14.29,0,0,1,11.3,5.22c5,6.15,3.56,13.49-.87,18.26-2.39,2.57-4.05,3.71-5.22,7-1.27,3.54-.87,7-.87,9.57"/>
    <circle cx="109" cy="91" r="4"/>
  </g>
</svg>
