<svg xmlns="http://www.w3.org/2000/svg" width="216" height="320" viewBox="0 0 216 320">
  <defs>
    <style>
      .a {
        fill: #fff;
      }
    </style>
  </defs>
  <title>протест</title>
  <g>
    <path d="M216,113c0,65-64,163-108,207C61.5,273.5,0,175.41,0,113S45.59,0,108,0,216,50.59,216,113Z"/>
    <g>
      <polygon class="a" points="55 142.1 74.04 138.3 81.66 128.14 93.09 123.06 101.97 121.79 101.97 104.02 60.08 104.02 60.08 38 165.45 38 165.45 104.02 122.29 104.02 122.29 133.22 127.36 135.76 127.36 143.37 123.56 145.91 127.36 147.18 129.9 152.26 127.36 157.34 123.56 158.61 127.36 159.88 128.63 164.96 127.36 168.76 123.56 170.03 126.1 171.3 126.1 176.38 122.29 178.92 117.21 181.46 98.17 184 85.47 181.46 76.58 175.11 60.08 176.38 55 142.1"/>
      <rect x="105.42" y="44.19" width="13.97" height="50.39" transform="translate(-16.14 99.81) rotate(-45)"/>
      <rect x="105.42" y="44.19" width="13.97" height="50.39" transform="translate(142.83 197.93) rotate(-135)"/>
    </g>
  </g>
</svg>
