<?xml version="1.0" encoding="utf-8"?>
<!-- Generator: Adobe Illustrator 22.0.1, SVG Export Plug-In . SVG Version: 6.00 Build 0)  -->
<svg version="1.1" id="Слой_1" xmlns="http://www.w3.org/2000/svg" xmlns:xlink="http://www.w3.org/1999/xlink" x="0px" y="0px"
	 viewBox="0 0 100 100" style="enable-background:new 0 0 100 100;" xml:space="preserve">
<style type="text/css">
	.st0{fill:#FFFFFF;}
</style>
<title>protest</title>
<path class="st0" d="M100,45.2V0H4.6v45.2h37.9v12.2l-8,0.9l-10.4,3.4l-6.9,7L0,71.3l4.6,23.5l14.9-0.9l8.1,4.4l11.5,1.7l17.2-1.7
	l4.6-1.8l3.5-1.7v-3.5l-2.3-0.9l3.4-0.8l1.2-2.6l-1.2-3.5l-3.4-0.9l3.4-0.9l2.3-3.4l-2.3-3.5l-3.4-0.9l3.4-1.7V67l-4.6-1.8v-20H100z
	 M52,28.3l-11.7,8.8l-8.9-6.8L43,21.5l-11.6-8.8l8.9-6.8L52,14.7l11.6-8.8l9,6.8L61,21.5l11.6,8.8l-9,6.8L52,28.3z"/>
</svg>
