<svg xmlns="http://www.w3.org/2000/svg" width="28" height="28" viewBox="0 0 28 28"><path fill="#fff" d="M21.393 10.552c-.338.807-1.199 1.244-2.035 1.244-1.018 0-1.596-1.645-1.596-2.102.714.005 2.796-.781 3.562-2.094.293-.496.442-.985.595-1.518V3.871c-.429.019-1.41-.074-1.41 1.061 0 1.358-.197 1.313-.477 1.817-.709 1.272-3.117 1.06-3.117 1.06-.837-1.167-2.776-3.406-3.169-3.554-.177-.066-.065-.961-.065-.961l2.172-.483s.038-.77.038-1.005c0-.201-3.724-.752-3.724-.752L11.95.002l-.975.011.002.88s-1.031.24-1.016 2.144c.007.863 2.782 4.222 2.984 5.949.036.325.062 1.677.062 2.281 0 3.254-2.267 4.767-2.375 4.888-.231.249-1.109 1.468-1.987.819-.88-.649-.435-1.1 1.046-2.754.859-1.054 1.79-2.387.859-4.747-.839-2.128-3.376-4.391-3.859-4.543-.48-.156-1.052.067-1.31.335-1.273 1.312 1.626 4.259 1.626 6.107 0 3.17-1.028 3.463-1 4.764.01.403.06.8.446 1.316.869 1.16 2.337.815 3.242.815l.426.326-.061 3.647c-.452.316-1.938.596-1.996 1.31-.007.691-.012 2.009-.021 2.697.11.624.698 1.588 1.327 1.706.188.041 2.057.087 2.515 0l-.076-.861c-.139-.549-.666-.56-1.709-.56-.4 0-.951-.648-.951-1.376 0-.519.403-.992.777-1.146 2.838 0 3.794-.994 3.794-1.855l1.832-.033.474.677c-.003.365.057 3.081.053 3.407.088.661.668 1.594 1.298 1.712.188.041 1.387.077 2.554.077l-.075-.861c-.14-.549-.63-.624-1.671-.624-.402 0-.894-.712-.894-1.424 0-1.328 1.462-2.59 1.462-4.071 0-1.763-.802-2.6-2.511-3.419-.407-.103-.738-.528-.81-1.562-.018-.294.1-.713.227-1.02.461-1.065.831-.971 1.262-2.476h.971c.46.982 1.489.922 2.056.922.861 0 1.652-1.056 2.098-1.515.249-.228.694-.309.893-.47l.006-1.757c-.003.003-1.136-.165-1.552.834z"/></svg>