<svg xmlns="http://www.w3.org/2000/svg" width="216" height="320" viewBox="0 0 216 320">
  <defs>
    <style>
      .a {
        fill: #fff;
      }
    </style>
  </defs>
  <title>Ресурс 2</title>
  <g>
    <path d="M216,113c0,65-64,163-108,207C61.5,273.5,0,175.41,0,113S45.59,0,108,0,216,50.59,216,113Z"/>
    <path class="a" d="M61.35,93.65c-2.2,3.42-15.57,25-7.79,50.65a55.94,55.94,0,0,0,18.18,27.27c18.12,14.49,45.44,16.41,64.94,5.2,35.91-20.66,36.37-76.63,26-83.12-9.09,2.6-24.32,23-28.57,19.48-3-2.46,2.12-16.05,1.3-32.47C134.3,59.23,110.7,46.9,104.21,43c-3.9,6.49-2.6,44.16-27.27,58.44"/>
    <path d="M76.74,125.73c-1.42,2.21-10.06,16.17-5,32.73a36.15,36.15,0,0,0,11.75,17.63c11.71,9.36,29.37,10.61,42,3.36,23.21-13.35,23.5-49.52,16.79-53.72-5.88,1.68-15.72,14.84-18.47,12.59-1.94-1.59,1.37-10.37.84-21-.69-13.85-15.95-21.82-20.14-24.34-2.52,4.2-1.68,28.54-17.63,37.77"/>
  </g>
</svg>
