<svg xmlns="http://www.w3.org/2000/svg" width="216" height="320" viewBox="0 0 216 320">
  <defs>
    <style>
      .a {
        fill: #fff;
      }
    </style>
  </defs>
  <title>нападение</title>
  <g>
    <path d="M216,113c0,65-64,163-108,207C61.5,273.5,0,175.41,0,113S45.59,0,108,0,216,50.59,216,113Z"/>
    <g>
      <polygon class="a" points="47.12 145.23 59.14 133.2 55.13 117.17 67.16 97.13 83.19 93.12 91.21 85.1 99.23 85.1 107.24 89.11 107.24 93.12 111.25 93.12 119.27 97.13 119.27 101.14 123.28 101.14 131.29 113.16 131.29 113.16 131.29 113.16 131.29 117.17 135.3 121.18 135.3 133.2 107.24 157.25 95.22 157.25 79.18 173.29 47.12 145.23"/>
      <polygon points="51.13 143.77 62.06 132.84 58.41 118.26 69.34 100.04 83.92 96.4 91.21 89.11 98.5 89.11 105.78 92.75 105.78 96.4 109.43 96.4 116.72 100.04 116.72 103.69 120.36 103.69 127.65 114.62 127.65 114.62 127.65 114.62 127.65 118.26 131.29 121.91 131.29 132.84 105.78 154.7 94.85 154.7 80.28 169.28 51.13 143.77"/>
      <polygon class="a" points="79.18 97.13 99.23 105.14 95.22 117.17 79.18 117.17 79.18 109.15 75.17 109.15 75.17 121.18 99.23 121.18 103.23 101.14 85.95 94.37 79.18 97.13"/>
      <polygon class="a" points="92.21 121.18 95.22 129.19 107.24 133.2 131.29 117.17 131.29 113.16 123.28 101.14 119.27 101.14 115.26 105.14 100.03 117.17 92.21 121.18"/>
      <polygon points="97.97 120.17 100.23 126.19 109.25 129.19 127.28 117.17 127.28 114.16 121.27 105.14 118.27 105.14 115.26 108.15 103.84 117.17 97.97 120.17"/>
      <rect class="a" x="102.54" y="92.91" width="4.01" height="10.62" transform="translate(95.02 -44.91) rotate(42.98)"/>
      <polygon class="a" points="107.24 133.2 111.25 141.22 121.93 144.66 135.3 133.2 135.3 121.18 131.29 117.17 107.24 133.2"/>
      <polygon points="111.42 132.53 114.26 138.21 121.82 140.65 131.29 132.53 131.29 124.02 128.45 121.18 111.42 132.53"/>
      <polyline class="a" points="63.15 89.11 55.13 61.05 55.13 57.04 59.14 57.04 91.21 69.07 107.24 41.01 111.25 37 115.26 41.01 131.29 69.07 163.36 69.07 167.37 69.07 167.37 73.08 155.34 97.13 179.39 117.17 183.4 121.18 179.39 125.19 147.33 137.21 151.34 157.25 151.34 161.26 147.33 161.26 123.28 161.26 123.28 157.25 147.33 157.25 143.32 133.2 179.39 121.18 151.34 97.13 163.36 73.08 127.28 73.08 111.25 41.01 91.21 73.08 59.14 61.05 67.16 89.11"/>
      <rect x="38.09" y="152.3" width="47.58" height="12.65" transform="translate(119.2 -1.7) rotate(40.99)"/>
    </g>
  </g>
</svg>
